<?xml version="1.0" encoding="utf-8"?>
<!-- Generator: Adobe Illustrator 22.1.0, SVG Export Plug-In . SVG Version: 6.00 Build 0)  -->
<svg version="1.1" id="Camada_1" xmlns="http://www.w3.org/2000/svg" xmlns:xlink="http://www.w3.org/1999/xlink" x="0px" y="0px"
	 viewBox="0 0 207.6 96.4" style="enable-background:new 0 0 207.6 96.4;" xml:space="preserve">
	<path style="fill:#007788;" d="M58.8,22.7h115.8c18.2,0,33,14.8,33,33v0c0,18.2-14.8,33-33,33H58.8c-18.2,0-33-14.8-33-33v0
		C25.9,37.5,40.6,22.7,58.8,22.7z"/>
	<path style="fill:#FFFFFF;" d="M116.4,43.4c1.4,0,2.7,0.2,4,0.5c1.1,0.3,2.2,0.8,3.1,1.5c0.9,0.7,1.5,1.6,2,2.5c0.5,1.1,0.7,2.4,0.7,3.6
		c0,1.2-0.2,2.5-0.7,3.6c-0.4,1-1.1,1.9-1.9,2.6c-0.9,0.7-1.9,1.2-3.1,1.5c-1.3,0.4-2.6,0.5-4,0.5h-4.5V67c0,0.5-0.4,1-0.9,1h-4.6
		c-0.5,0-0.9-0.4-0.9-0.9V44.3c0-0.5,0.4-0.9,0.9-1L116.4,43.4z M111.9,54.4h4.3c0.9,0,1.7-0.2,2.4-0.7c1.2-1,1.3-2.8,0.3-4
		c-0.1-0.1-0.2-0.2-0.3-0.3c-0.7-0.5-1.6-0.7-2.4-0.7h-4.3V54.4z"/>
	<path style="fill:#FFFFFF;" d="M144.7,62.3c0.5,0,0.9,0.4,0.9,1V67c0,0.5-0.4,0.9-0.9,0.9h-16.2c-0.5,0-0.9-0.4-0.9-0.9V44.3
		c0-0.5,0.4-0.9,0.9-1h4.6c0.5,0,0.9,0.4,0.9,1v18H144.7z"/>
	<path style="fill:#FFFFFF;" d="M162.6,43.4c0.4,0,0.8,0.1,1.1,0.4c0.2,0.2,0.4,0.5,0.5,0.8l7.6,22.1c0.1,0.2,0.1,0.3,0.1,0.5
		c0,0.4-0.3,0.8-0.8,0.8h-4.4c-0.4,0-0.7-0.1-1-0.3c-0.2-0.2-0.3-0.4-0.4-0.6l-1-2.9h-9.3l-1,2.9c-0.1,0.2-0.2,0.4-0.4,0.6
		c-0.3,0.2-0.6,0.3-1,0.3h-4.4c-0.4,0-0.8-0.3-0.8-0.8c0-0.2,0.1-0.4,0.1-0.5l7.6-22.1c0.1-0.3,0.3-0.6,0.5-0.8
		c0.3-0.3,0.7-0.4,1.1-0.4L162.6,43.4z M156.9,58.7h5.7l-2.8-8.4L156.9,58.7z"/>
	<path style="fill:#FFFFFF;" d="M184,67c0,0.5-0.4,0.9-0.9,0.9h-4.6c-0.5,0-0.9-0.4-0.9-0.9v-7.5l-8.1-14.9c-0.1-0.1-0.1-0.3-0.1-0.5
		c0-0.4,0.3-0.8,0.8-0.8h4.8c0.4,0,0.8,0.1,1.1,0.3c0.2,0.2,0.3,0.3,0.4,0.5l4.4,8.6l4.5-8.6c0.1-0.2,0.3-0.4,0.4-0.5
		c0.3-0.3,0.7-0.4,1.1-0.3h4.8c0.4,0,0.8,0.3,0.8,0.8c0,0.2-0.1,0.3-0.1,0.5L184,59.5V67z"/>
		<path style="opacity:0.15;enable-background:new;" d="M93.7,49c-5.3-11-12.4-15.7-17-19.6c-3.3-2.3-6.7-4.4-10.4-6.1c0.5-3.4,1.4-6.6,2.7-9.8
			c3.4-8.6,8.2-2.9,9.8,2.2c1.3-3.6-0.6-7.6-4.2-9c-1-0.4-2.2-0.5-3.3-0.4c-5.6,0.7-9.2,15.1-9.2,15.1l0,0L60.9,21
			c-1-0.4-2-0.8-3.1-1.1l0,0c-2.2-6-6.3-11.1-11.8-14.4c-7-4.1-18.6-5.3-30.7,0.7c0,0,28.8-7.6,37.5,12.3l0,0
			c-11.9-3.1-26.2-4-36.5,0.9C2.2,26-3.6,42.7,2.4,57C11.9,79.6,41.8,96.8,66,96.3C92.5,95.8,105.4,72.5,93.7,49z"/>
		
			<linearGradient id="SVGID_1_" gradientUnits="userSpaceOnUse" x1="31.6005" y1="14.281" x2="64.6005" y2="74.111" gradientTransform="matrix(1 0 0 -1 0 98)">
			<stop  offset="0" style="stop-color:#CCFF00"/>
			<stop  offset="0.49" style="stop-color:#B9E500"/>
			<stop  offset="0.61" style="stop-color:#B0DD00"/>
			<stop  offset="0.81" style="stop-color:#97C600"/>
			<stop  offset="1" style="stop-color:#7AAC00"/>
		</linearGradient>
		<path style="fill:url(#SVGID_1_);" d="M93.7,47c-5.3-11-12.4-15.7-17-19.6c-3.3-2.3-6.7-4.4-10.4-6.1c0.5-3.4,1.4-6.6,2.7-9.8
			c3.4-8.6,8.2-2.9,9.8,2.2c1.3-3.6-0.6-7.6-4.2-9c-1-0.4-2.2-0.5-3.3-0.4c-5.6,0.7-9.2,15.1-9.2,15.1l0,0L60.9,19
			c-1-0.4-2-0.8-3.1-1.1l0,0c-2.2-6-6.3-11.1-11.8-14.4c-7-4.1-18.6-5.3-30.7,0.7c0,0,28.8-7.6,37.5,12.3l0,0
			c-11.9-3.1-26.2-4-36.5,0.9C2.2,24-3.6,40.7,2.4,55C11.9,77.6,41.8,94.8,66,94.3C92.5,93.8,105.4,70.5,93.7,47z"/>
		<path style="fill:#CCFF00;" d="M16.4,18.3c10.3-4.8,24.6-4,36.5-0.9l0,0c-0.2-0.4-0.4-0.8-0.5-1.1c-11.8-3-25.7-3.7-35.9,1
			C6.2,22.2-0.3,32.6,0,44C0.1,33,6.5,23,16.4,18.3z"/>
		<path style="fill:#CCFF00;" d="M76.7,28.5c4.6,3.9,11.7,8.5,17,19.5c2.7,5.2,4.2,11,4.3,16.8c0-6.2-1.5-12.3-4.3-17.8
			c-5.3-11-12.4-15.7-17-19.6c-3.2-2.3-6.7-4.3-10.2-6c-0.1,0.3-0.1,0.7-0.1,0.9C69.9,24.1,73.4,26.1,76.7,28.5z"/>
		<path style="fill:#CCFF00;" d="M46,4.5c5.5,3.3,9.7,8.4,11.9,14.5l0,0c1.1,0.4,2.1,0.7,3.1,1.1c0.4,0.2,0.8,0.4,1.2,0.5l0,0
			c0,0,3.6-14.4,9.2-15.1c3.8-0.5,7.2,2.1,7.8,5.8c0,0.2,0.1,0.4,0.1,0.7c0.4-3.8-2.4-7.2-6.2-7.6c-0.5-0.1-1.1,0-1.6,0
			c-5.6,0.7-9.2,15.1-9.2,15.1l0,0L61,19c-1-0.4-2-0.8-3.1-1.1l0,0c-2.2-6-6.4-11.1-11.9-14.4c-7-4.1-18.6-5.3-30.7,0.7
			c0,0,1.6-0.4,4.1-0.8C30-0.6,39.8,0.8,46,4.5z"/>
		<path style="fill:#2D2D2D;" d="M71.4,56L44.2,73c-1.6,1-3.7,0.5-4.7-1c-0.3-0.5-0.5-1.1-0.5-1.8c0-0.1,0-0.1,0-0.2V36.2c0-1.7,1.3-3.2,3-3.4
			c0.8-0.1,1.6,0.1,2.3,0.6l27,16.9c1.6,1,2.1,3.1,1.1,4.7C72.1,55.4,71.7,55.8,71.4,56L71.4,56z"/>
</svg>
