<svg id="Camada_1" data-name="Camada 1" xmlns="http://www.w3.org/2000/svg" xmlns:xlink="http://www.w3.org/1999/xlink" viewBox="0 0 207.61 96.36"><defs><linearGradient id="Gradiente_sem_nome" x1="56.98" y1="-230.34" x2="36.98" y2="-289.67" gradientTransform="matrix(1, 0, 0, -1, 0, -199.92)" gradientUnits="userSpaceOnUse"><stop offset="0" stop-color="#cf0"/><stop offset="0.49" stop-color="#b9e500"/><stop offset="0.61" stop-color="#b0dd00"/><stop offset="0.81" stop-color="#97c600"/><stop offset="1" stop-color="#7aac00"/></linearGradient></defs><title>vagaPlayExt_normal</title><rect x="25.86" y="22.69" width="181.75" height="65.97" rx="32.98" ry="32.98" fill="#2d2d2d"/><path d="M116.4,43.4a14.77,14.77,0,0,1,4,.51,8.37,8.37,0,0,1,3.05,1.54A6.87,6.87,0,0,1,125.43,48a8.76,8.76,0,0,1,.68,3.58,8.85,8.85,0,0,1-.68,3.61,6.71,6.71,0,0,1-1.95,2.56,8.71,8.71,0,0,1-3.05,1.54,14.27,14.27,0,0,1-4,.53h-4.49V67A1,1,0,0,1,111,68h-4.59a1,1,0,0,1-.95-.95V44.34a1,1,0,0,1,.95-.95Zm-4.49,11h4.31a4.27,4.27,0,0,0,2.44-.65,2.82,2.82,0,0,0,0-4.24,4.28,4.28,0,0,0-2.44-.65h-4.31Z" fill="#fff"/><path d="M144.67,62.34a1,1,0,0,1,.95.95V67a1,1,0,0,1-.95.95H128.43a1,1,0,0,1-.95-.95V44.34a1,1,0,0,1,.95-.95H133a1,1,0,0,1,.95.95v18Z" fill="#fff"/><path d="M162.62,43.4a1.41,1.41,0,0,1,1.07.39,2.27,2.27,0,0,1,.51.77l7.65,22.1a1.61,1.61,0,0,1,.14.53.78.78,0,0,1-.77.77h-4.42a1.38,1.38,0,0,1-1-.3,1.28,1.28,0,0,1-.37-.58l-1-2.91h-9.33l-1,2.91a1.31,1.31,0,0,1-.37.58,1.39,1.39,0,0,1-1,.3h-4.42a.78.78,0,0,1-.77-.77,1.59,1.59,0,0,1,.14-.53l7.65-22.1a2.27,2.27,0,0,1,.51-.77,1.41,1.41,0,0,1,1.07-.39Zm-5.68,15.33h5.68l-2.84-8.42Z" fill="#fff"/><path d="M184,67a1,1,0,0,1-.95.95h-4.59a1,1,0,0,1-.95-.95V59.53l-8.1-14.91a.93.93,0,0,1-.14-.46.78.78,0,0,1,.77-.77h4.81a1.43,1.43,0,0,1,1.05.35,2,2,0,0,1,.42.53l4.42,8.63,4.46-8.63a2,2,0,0,1,.42-.53,1.43,1.43,0,0,1,1.05-.35h4.81a.78.78,0,0,1,.77.77.93.93,0,0,1-.14.46L184,59.53Z" fill="#fff"/><path d="M93.67,49c-5.29-11-12.43-15.66-17-19.59a67.85,67.85,0,0,0-10.36-6.09A38.24,38.24,0,0,1,69,13.57c3.39-8.62,8.24-2.93,9.78,2.23a7,7,0,0,0-7.47-9.32c-5.62.69-9.18,15.06-9.18,15.06h0L60.9,21c-1-.39-2-.75-3.09-1.11h0A28.13,28.13,0,0,0,46,5.46C39,1.34,27.36.12,15.32,6.19c0,0,28.77-7.56,37.54,12.25h0c-11.86-3.11-26.15-4-36.46.87C2.18,26-3.66,42.7,2.37,57,11.88,79.61,41.81,96.83,66,96.35,92.51,95.82,105.37,72.5,93.67,49Z" opacity="0.15"/><path d="M93.67,47c-5.29-11-12.43-15.66-17-19.59a67.85,67.85,0,0,0-10.36-6.09A38.24,38.24,0,0,1,69,11.57c3.39-8.62,8.24-2.93,9.78,2.23a7,7,0,0,0-7.47-9.32c-5.62.69-9.18,15.06-9.18,15.06h0L60.9,19c-1-.39-2-.75-3.09-1.11h0A28.13,28.13,0,0,0,46,3.46C39-.66,27.36-1.88,15.32,4.19c0,0,28.77-7.56,37.54,12.25h0c-11.86-3.11-26.15-4-36.46.87C2.18,24-3.66,40.7,2.37,55,11.88,77.61,41.81,94.83,66,94.35,92.51,93.82,105.37,70.5,93.67,47Z" fill="url(#Gradiente_sem_nome)"/><path d="M16.43,18.32c10.31-4.83,24.59-4,36.46-.87h0c-.17-.39-.37-.75-.55-1.12-11.75-3-25.74-3.74-35.88,1A28.6,28.6,0,0,0,0,44,28.56,28.56,0,0,1,16.43,18.32Z" fill="#eeffa9"/><path d="M76.66,28.48C81.24,32.41,88.37,37,93.67,48A39.1,39.1,0,0,1,98,64.84,38.7,38.7,0,0,0,93.67,47c-5.29-11-12.43-15.66-17-19.59a67.76,67.76,0,0,0-10.24-6c-.05.34-.1.67-.12.94A67.85,67.85,0,0,1,76.66,28.48Z" fill="#eeffa9"/><path d="M46,4.46A28.13,28.13,0,0,1,57.86,18.93h0c1.06.36,2.1.72,3.09,1.11.43.17.82.36,1.24.53h0S65.75,6.18,71.37,5.49A6.87,6.87,0,0,1,79.19,12a6.93,6.93,0,0,0-7.82-7.56c-5.62.69-9.18,15.06-9.18,15.06h0L61,19c-1-.39-2-.75-3.09-1.11h0A28.13,28.13,0,0,0,46,3.46C39-.66,27.36-1.88,15.32,4.19c0,0,1.59-.41,4.12-.79C30-.55,39.77.82,46,4.46Z" fill="#eeffa9"/><path d="M71.34,56,44.18,73A3.37,3.37,0,0,1,39,70.19q0-.08,0-.15V36.19a3.41,3.41,0,0,1,3-3.38,3.52,3.52,0,0,1,2.29.57l27,16.91a3.4,3.4,0,0,1,0,5.76Z" fill="#2d2d2d"/></svg>