<svg xmlns="http://www.w3.org/2000/svg" xmlns:xlink="http://www.w3.org/1999/xlink" viewBox="0 0 98.01 96.36">
	<g id="pause-btn-hover">
		<defs><linearGradient id="Gradiente_pause-btn-hover" x1="51.39" y1="47.06" x2="34.73" y2="-2.37" gradientTransform="matrix(1, 0, 0, -1, 0, 94.08)" gradientUnits="userSpaceOnUse"><stop offset="0.22" stop-color="#cf0"/><stop offset="0.55" stop-color="#b9e500"/><stop offset="0.69" stop-color="#b0dd00"/><stop offset="0.84" stop-color="#97c600"/><stop offset="1" stop-color="#7aac00"/></linearGradient></defs><title>vagaPause_hover</title><path d="M93.67,49c-5.29-11-12.43-15.66-17-19.59a67.85,67.85,0,0,0-10.36-6.09A38.24,38.24,0,0,1,69,13.57c3.39-8.62,8.24-2.93,9.78,2.23a7,7,0,0,0-7.47-9.32c-5.62.69-9.18,15.06-9.18,15.06h0L60.9,21c-1-.39-2-.75-3.09-1.11h0A28.13,28.13,0,0,0,46,5.46C39,1.34,27.36.12,15.32,6.19c0,0,28.77-7.56,37.54,12.25h0c-11.86-3.11-26.15-4-36.46.87C2.18,26-3.66,42.7,2.37,57,11.88,79.61,41.81,96.83,66,96.35,92.51,95.82,105.37,72.5,93.67,49Z" opacity="0.15"/><path d="M93.67,47c-5.29-11-12.43-15.66-17-19.59a67.85,67.85,0,0,0-10.36-6.09A38.24,38.24,0,0,1,69,11.57c3.39-8.62,8.24-2.93,9.78,2.23a7,7,0,0,0-7.47-9.32c-5.62.69-9.18,15.06-9.18,15.06h0L60.9,19c-1-.39-2-.75-3.09-1.11h0A28.13,28.13,0,0,0,46,3.46C39-.66,27.36-1.88,15.32,4.19c0,0,28.77-7.56,37.54,12.25h0c-11.86-3.11-26.15-4-36.46.87C2.18,24-3.66,40.7,2.37,55,11.88,77.61,41.81,94.83,66,94.35,92.51,93.82,105.37,70.5,93.67,47Z" fill="url(#Gradiente_pause-btn-hover)"/><path d="M16.43,18.32c10.31-4.83,24.59-4,36.46-.87h0c-.17-.39-.37-.75-.55-1.12-11.75-3-25.74-3.74-35.88,1A28.6,28.6,0,0,0,0,44,28.56,28.56,0,0,1,16.43,18.32Z" fill="#eeffa9"/><path d="M76.66,28.48C81.24,32.41,88.37,37,93.67,48A39.1,39.1,0,0,1,98,64.84,38.7,38.7,0,0,0,93.67,47c-5.29-11-12.43-15.66-17-19.59a67.76,67.76,0,0,0-10.24-6c-.05.34-.1.67-.12.94A67.85,67.85,0,0,1,76.66,28.48Z" fill="#eeffa9"/><path d="M46,4.46A28.13,28.13,0,0,1,57.86,18.93h0c1.06.36,2.1.72,3.09,1.11.43.17.82.36,1.24.53h0S65.75,6.18,71.37,5.49A6.87,6.87,0,0,1,79.19,12a6.93,6.93,0,0,0-7.82-7.56c-5.62.69-9.18,15.06-9.18,15.06h0L61,19c-1-.39-2-.75-3.09-1.11h0A28.13,28.13,0,0,0,46,3.46C39-.66,27.36-1.88,15.32,4.19c0,0,1.59-.41,4.12-.79C30-.55,39.77.82,46,4.46Z" fill="#eeffa9"/><rect x="36.68" y="33.21" width="10.14" height="41.35" rx="1.79" ry="1.79" fill="#2d2d2d"/><rect x="54.58" y="33.21" width="10.14" height="41.35" rx="1.79" ry="1.79" fill="#2d2d2d"/>
	</g>
	<g id="pause-btn-pressed">
		<defs><linearGradient id="Gradiente_pause-btn-pressed" x1="31.59" y1="83.72" x2="64.59" y2="23.89" gradientUnits="userSpaceOnUse"><stop offset="0" stop-color="#cf0"/><stop offset="0.49" stop-color="#b9e500"/><stop offset="0.61" stop-color="#b0dd00"/><stop offset="0.81" stop-color="#97c600"/><stop offset="1" stop-color="#7aac00"/></linearGradient></defs><title>vagaPause_pressed</title><path d="M93.67,49c-5.29-11-12.43-15.66-17-19.59a67.85,67.85,0,0,0-10.36-6.09A38.24,38.24,0,0,1,69,13.57c3.39-8.62,8.24-2.93,9.78,2.23a7,7,0,0,0-7.47-9.32c-5.62.69-9.18,15.06-9.18,15.06h0L60.9,21c-1-.39-2-.75-3.09-1.11h0A28.13,28.13,0,0,0,46,5.46C39,1.34,27.36.12,15.32,6.19c0,0,28.77-7.56,37.54,12.25h0c-11.86-3.11-26.15-4-36.46.87C2.18,26-3.66,42.7,2.37,57,11.88,79.61,41.81,96.83,66,96.35,92.51,95.82,105.37,72.5,93.67,49Z" opacity="0.15"/><path d="M93.67,47c-5.29-11-12.43-15.66-17-19.59a67.85,67.85,0,0,0-10.36-6.09A38.24,38.24,0,0,1,69,11.57c3.39-8.62,8.24-2.93,9.78,2.23a7,7,0,0,0-7.47-9.32c-5.62.69-9.18,15.06-9.18,15.06h0L60.9,19c-1-.39-2-.75-3.09-1.11h0A28.13,28.13,0,0,0,46,3.46C39-.66,27.36-1.88,15.32,4.19c0,0,28.77-7.56,37.54,12.25h0c-11.86-3.11-26.15-4-36.46.87C2.18,24-3.66,40.7,2.37,55,11.88,77.61,41.81,94.83,66,94.35,92.51,93.82,105.37,70.5,93.67,47Z" fill="url(#Gradiente_pause-btn-pressed)"/><path d="M16.43,18.32c10.31-4.83,24.59-4,36.46-.87h0c-.17-.39-.37-.75-.55-1.12-11.75-3-25.74-3.74-35.88,1A28.6,28.6,0,0,0,0,44,28.56,28.56,0,0,1,16.43,18.32Z" fill="#cf0"/><path d="M76.66,28.48C81.24,32.41,88.37,37,93.67,48A39.1,39.1,0,0,1,98,64.84,38.7,38.7,0,0,0,93.67,47c-5.29-11-12.43-15.66-17-19.59a67.76,67.76,0,0,0-10.24-6c-.05.34-.1.67-.12.94A67.85,67.85,0,0,1,76.66,28.48Z" fill="#cf0"/><path d="M46,4.46A28.13,28.13,0,0,1,57.86,18.93h0c1.06.36,2.1.72,3.09,1.11.43.17.82.36,1.24.53h0S65.75,6.18,71.37,5.49A6.87,6.87,0,0,1,79.19,12a6.93,6.93,0,0,0-7.82-7.56c-5.62.69-9.18,15.06-9.18,15.06h0L61,19c-1-.39-2-.75-3.09-1.11h0A28.13,28.13,0,0,0,46,3.46C39-.66,27.36-1.88,15.32,4.19c0,0,1.59-.41,4.12-.79C30-.55,39.77.82,46,4.46Z" fill="#cf0"/><rect x="36.68" y="33.21" width="10.14" height="41.35" rx="1.79" ry="1.79" fill="#2d2d2d"/><rect x="54.58" y="33.21" width="10.14" height="41.35" rx="1.79" ry="1.79" fill="#2d2d2d"/>
	</g>
	<g id="pause-btn">
		<defs><linearGradient id="Gradiente_pause-btn" x1="56.98" y1="63.66" x2="36.98" y2="4.33" gradientTransform="matrix(1, 0, 0, -1, 0, 94.08)" gradientUnits="userSpaceOnUse"><stop offset="0" stop-color="#cf0"/><stop offset="0.49" stop-color="#b9e500"/><stop offset="0.61" stop-color="#b0dd00"/><stop offset="0.81" stop-color="#97c600"/><stop offset="1" stop-color="#7aac00"/></linearGradient></defs><title>vagaPause_normal</title><path d="M93.67,49c-5.29-11-12.43-15.66-17-19.59a67.85,67.85,0,0,0-10.36-6.09A38.24,38.24,0,0,1,69,13.57c3.39-8.62,8.24-2.93,9.78,2.23a7,7,0,0,0-7.47-9.32c-5.62.69-9.18,15.06-9.18,15.06h0L60.9,21c-1-.39-2-.75-3.09-1.11h0A28.13,28.13,0,0,0,46,5.46C39,1.34,27.36.12,15.32,6.19c0,0,28.77-7.56,37.54,12.25h0c-11.86-3.11-26.15-4-36.46.87C2.18,26-3.66,42.7,2.37,57,11.88,79.61,41.81,96.83,66,96.35,92.51,95.82,105.37,72.5,93.67,49Z" opacity="0.15"/><path d="M93.67,47c-5.29-11-12.43-15.66-17-19.59a67.85,67.85,0,0,0-10.36-6.09A38.24,38.24,0,0,1,69,11.57c3.39-8.62,8.24-2.93,9.78,2.23a7,7,0,0,0-7.47-9.32c-5.62.69-9.18,15.06-9.18,15.06h0L60.9,19c-1-.39-2-.75-3.09-1.11h0A28.13,28.13,0,0,0,46,3.46C39-.66,27.36-1.88,15.32,4.19c0,0,28.77-7.56,37.54,12.25h0c-11.86-3.11-26.15-4-36.46.87C2.18,24-3.66,40.7,2.37,55,11.88,77.61,41.81,94.83,66,94.35,92.51,93.82,105.37,70.5,93.67,47Z" fill="url(#Gradiente_pause-btn)"/><path d="M16.43,18.32c10.31-4.83,24.59-4,36.46-.87h0c-.17-.39-.37-.75-.55-1.12-11.75-3-25.74-3.74-35.88,1A28.6,28.6,0,0,0,0,44,28.56,28.56,0,0,1,16.43,18.32Z" fill="#eeffa9"/><path d="M76.66,28.48C81.24,32.41,88.37,37,93.67,48A39.1,39.1,0,0,1,98,64.84,38.7,38.7,0,0,0,93.67,47c-5.29-11-12.43-15.66-17-19.59a67.76,67.76,0,0,0-10.24-6c-.05.34-.1.67-.12.94A67.85,67.85,0,0,1,76.66,28.48Z" fill="#eeffa9"/><path d="M46,4.46A28.13,28.13,0,0,1,57.86,18.93h0c1.06.36,2.1.72,3.09,1.11.43.17.82.36,1.24.53h0S65.75,6.18,71.37,5.49A6.87,6.87,0,0,1,79.19,12a6.93,6.93,0,0,0-7.82-7.56c-5.62.69-9.18,15.06-9.18,15.06h0L61,19c-1-.39-2-.75-3.09-1.11h0A28.13,28.13,0,0,0,46,3.46C39-.66,27.36-1.88,15.32,4.19c0,0,1.59-.41,4.12-.79C30-.55,39.77.82,46,4.46Z" fill="#eeffa9"/><rect x="36.68" y="33.21" width="10.14" height="41.35" rx="1.79" ry="1.79" fill="#2d2d2d"/><rect x="54.58" y="33.21" width="10.14" height="41.35" rx="1.79" ry="1.79" fill="#2d2d2d"/>
	</g>

	<g id="play-btn-hover">
		<defs><linearGradient id="Gradiente_play-btn-hover" x1="51.39" y1="47.06" x2="34.73" y2="-2.37" gradientTransform="matrix(1, 0, 0, -1, 0, 94.08)" gradientUnits="userSpaceOnUse"><stop offset="0.22" stop-color="#cf0"/><stop offset="0.55" stop-color="#b9e500"/><stop offset="0.69" stop-color="#b0dd00"/><stop offset="0.84" stop-color="#97c600"/><stop offset="1" stop-color="#7aac00"/></linearGradient></defs><title>vagaPlay_hover</title><path d="M93.67,49c-5.29-11-12.43-15.66-17-19.59a67.85,67.85,0,0,0-10.36-6.09A38.24,38.24,0,0,1,69,13.57c3.39-8.62,8.24-2.93,9.78,2.23a7,7,0,0,0-7.47-9.32c-5.62.69-9.18,15.06-9.18,15.06h0L60.9,21c-1-.39-2-.75-3.09-1.11h0A28.13,28.13,0,0,0,46,5.46C39,1.34,27.36.12,15.32,6.19c0,0,28.77-7.56,37.54,12.25h0c-11.86-3.11-26.15-4-36.46.87C2.18,26-3.66,42.7,2.37,57,11.88,79.61,41.81,96.83,66,96.35,92.51,95.82,105.37,72.5,93.67,49Z" opacity="0.15"/><path d="M93.67,47c-5.29-11-12.43-15.66-17-19.59a67.85,67.85,0,0,0-10.36-6.09A38.24,38.24,0,0,1,69,11.57c3.39-8.62,8.24-2.93,9.78,2.23a7,7,0,0,0-7.47-9.32c-5.62.69-9.18,15.06-9.18,15.06h0L60.9,19c-1-.39-2-.75-3.09-1.11h0A28.13,28.13,0,0,0,46,3.46C39-.66,27.36-1.88,15.32,4.19c0,0,28.77-7.56,37.54,12.25h0c-11.86-3.11-26.15-4-36.46.87C2.18,24-3.66,40.7,2.37,55,11.88,77.61,41.81,94.83,66,94.35,92.51,93.82,105.37,70.5,93.67,47Z" fill="url(#Gradiente_play-btn-hover)"/><path d="M71.34,56,44.18,73A3.37,3.37,0,0,1,39,70.19q0-.08,0-.15V36.19a3.41,3.41,0,0,1,3-3.38,3.52,3.52,0,0,1,2.29.57l27,16.91a3.4,3.4,0,0,1,0,5.76Z" fill="#2d2d2d"/><path d="M16.43,18.32c10.31-4.83,24.59-4,36.46-.87h0c-.17-.39-.37-.75-.55-1.12-11.75-3-25.74-3.74-35.88,1A28.6,28.6,0,0,0,0,44,28.56,28.56,0,0,1,16.43,18.32Z" fill="#eeffa9"/><path d="M76.66,28.48C81.24,32.41,88.37,37,93.67,48A39.1,39.1,0,0,1,98,64.84,38.7,38.7,0,0,0,93.67,47c-5.29-11-12.43-15.66-17-19.59a67.76,67.76,0,0,0-10.24-6c-.05.34-.1.67-.12.94A67.85,67.85,0,0,1,76.66,28.48Z" fill="#eeffa9"/><path d="M46,4.46A28.13,28.13,0,0,1,57.86,18.93h0c1.06.36,2.1.72,3.09,1.11.43.17.82.36,1.24.53h0S65.75,6.18,71.37,5.49A6.87,6.87,0,0,1,79.19,12a6.93,6.93,0,0,0-7.82-7.56c-5.62.69-9.18,15.06-9.18,15.06h0L61,19c-1-.39-2-.75-3.09-1.11h0A28.13,28.13,0,0,0,46,3.46C39-.66,27.36-1.88,15.32,4.19c0,0,1.59-.41,4.12-.79C30-.55,39.77.82,46,4.46Z" fill="#eeffa9"/>
	</g>

	<g id="play-btn-pressed">
		<defs><linearGradient id="Gradiente_play-btn-pressed" x1="31.59" y1="83.72" x2="64.59" y2="23.89" gradientUnits="userSpaceOnUse"><stop offset="0" stop-color="#cf0"/><stop offset="0.49" stop-color="#b9e500"/><stop offset="0.61" stop-color="#b0dd00"/><stop offset="0.81" stop-color="#97c600"/><stop offset="1" stop-color="#7aac00"/></linearGradient></defs><title>vagaPlay_pressed</title><path d="M93.67,49c-5.29-11-12.43-15.66-17-19.59a67.85,67.85,0,0,0-10.36-6.09A38.24,38.24,0,0,1,69,13.57c3.39-8.62,8.24-2.93,9.78,2.23a7,7,0,0,0-7.47-9.32c-5.62.69-9.18,15.06-9.18,15.06h0L60.9,21c-1-.39-2-.75-3.09-1.11h0A28.13,28.13,0,0,0,46,5.46C39,1.34,27.36.12,15.32,6.19c0,0,28.77-7.56,37.54,12.25h0c-11.86-3.11-26.15-4-36.46.87C2.18,26-3.66,42.7,2.37,57,11.88,79.61,41.81,96.83,66,96.35,92.51,95.82,105.37,72.5,93.67,49Z" opacity="0.15"/><path d="M93.67,47c-5.29-11-12.43-15.66-17-19.59a67.85,67.85,0,0,0-10.36-6.09A38.24,38.24,0,0,1,69,11.57c3.39-8.62,8.24-2.93,9.78,2.23a7,7,0,0,0-7.47-9.32c-5.62.69-9.18,15.06-9.18,15.06h0L60.9,19c-1-.39-2-.75-3.09-1.11h0A28.13,28.13,0,0,0,46,3.46C39-.66,27.36-1.88,15.32,4.19c0,0,28.77-7.56,37.54,12.25h0c-11.86-3.11-26.15-4-36.46.87C2.18,24-3.66,40.7,2.37,55,11.88,77.61,41.81,94.83,66,94.35,92.51,93.82,105.37,70.5,93.67,47Z" fill="url(#Gradiente_play-btn-pressed)"/><path d="M16.43,18.32c10.31-4.83,24.59-4,36.46-.87h0c-.17-.39-.37-.75-.55-1.12-11.75-3-25.74-3.74-35.88,1A28.6,28.6,0,0,0,0,44,28.56,28.56,0,0,1,16.43,18.32Z" fill="#cf0"/><path d="M76.66,28.48C81.24,32.41,88.37,37,93.67,48A39.1,39.1,0,0,1,98,64.84,38.7,38.7,0,0,0,93.67,47c-5.29-11-12.43-15.66-17-19.59a67.76,67.76,0,0,0-10.24-6c-.05.34-.1.67-.12.94A67.85,67.85,0,0,1,76.66,28.48Z" fill="#cf0"/><path d="M46,4.46A28.13,28.13,0,0,1,57.86,18.93h0c1.06.36,2.1.72,3.09,1.11.43.17.82.36,1.24.53h0S65.75,6.18,71.37,5.49A6.87,6.87,0,0,1,79.19,12a6.93,6.93,0,0,0-7.82-7.56c-5.62.69-9.18,15.06-9.18,15.06h0L61,19c-1-.39-2-.75-3.09-1.11h0A28.13,28.13,0,0,0,46,3.46C39-.66,27.36-1.88,15.32,4.19c0,0,1.59-.41,4.12-.79C30-.55,39.77.82,46,4.46Z" fill="#cf0"/><path d="M71.34,56,44.18,73A3.37,3.37,0,0,1,39,70.19q0-.08,0-.15V36.19a3.41,3.41,0,0,1,3-3.38,3.52,3.52,0,0,1,2.29.57l27,16.91a3.4,3.4,0,0,1,0,5.76Z" fill="#2d2d2d"/>
	</g>

	<g id="play-btn">
		<defs><linearGradient id="Gradiente_play-btn" x1="56.98" y1="63.66" x2="36.98" y2="4.33" gradientTransform="matrix(1, 0, 0, -1, 0, 94.08)" gradientUnits="userSpaceOnUse"><stop offset="0" stop-color="#cf0"/><stop offset="0.49" stop-color="#b9e500"/><stop offset="0.61" stop-color="#b0dd00"/><stop offset="0.81" stop-color="#97c600"/><stop offset="1" stop-color="#7aac00"/></linearGradient></defs><title>vagaPlay_normal</title><path d="M93.67,49c-5.29-11-12.43-15.66-17-19.59a67.85,67.85,0,0,0-10.36-6.09A38.24,38.24,0,0,1,69,13.57c3.39-8.62,8.24-2.93,9.78,2.23a7,7,0,0,0-7.47-9.32c-5.62.69-9.18,15.06-9.18,15.06h0L60.9,21c-1-.39-2-.75-3.09-1.11h0A28.13,28.13,0,0,0,46,5.46C39,1.34,27.36.12,15.32,6.19c0,0,28.77-7.56,37.54,12.25h0c-11.86-3.11-26.15-4-36.46.87C2.18,26-3.66,42.7,2.37,57,11.88,79.61,41.81,96.83,66,96.35,92.51,95.82,105.37,72.5,93.67,49Z" opacity="0.15"/><path d="M93.67,47c-5.29-11-12.43-15.66-17-19.59a67.85,67.85,0,0,0-10.36-6.09A38.24,38.24,0,0,1,69,11.57c3.39-8.62,8.24-2.93,9.78,2.23a7,7,0,0,0-7.47-9.32c-5.62.69-9.18,15.06-9.18,15.06h0L60.9,19c-1-.39-2-.75-3.09-1.11h0A28.13,28.13,0,0,0,46,3.46C39-.66,27.36-1.88,15.32,4.19c0,0,28.77-7.56,37.54,12.25h0c-11.86-3.11-26.15-4-36.46.87C2.18,24-3.66,40.7,2.37,55,11.88,77.61,41.81,94.83,66,94.35,92.51,93.82,105.37,70.5,93.67,47Z" fill="url(#Gradiente_play-btn)"/><path d="M16.43,18.32c10.31-4.83,24.59-4,36.46-.87h0c-.17-.39-.37-.75-.55-1.12-11.75-3-25.74-3.74-35.88,1A28.6,28.6,0,0,0,0,44,28.56,28.56,0,0,1,16.43,18.32Z" fill="#eeffa9"/><path d="M76.66,28.48C81.24,32.41,88.37,37,93.67,48A39.1,39.1,0,0,1,98,64.84,38.7,38.7,0,0,0,93.67,47c-5.29-11-12.43-15.66-17-19.59a67.76,67.76,0,0,0-10.24-6c-.05.34-.1.67-.12.94A67.85,67.85,0,0,1,76.66,28.48Z" fill="#eeffa9"/><path d="M46,4.46A28.13,28.13,0,0,1,57.86,18.93h0c1.06.36,2.1.72,3.09,1.11.43.17.82.36,1.24.53h0S65.75,6.18,71.37,5.49A6.87,6.87,0,0,1,79.19,12a6.93,6.93,0,0,0-7.82-7.56c-5.62.69-9.18,15.06-9.18,15.06h0L61,19c-1-.39-2-.75-3.09-1.11h0A28.13,28.13,0,0,0,46,3.46C39-.66,27.36-1.88,15.32,4.19c0,0,1.59-.41,4.12-.79C30-.55,39.77.82,46,4.46Z" fill="#eeffa9"/><path d="M71.34,56,44.18,73A3.37,3.37,0,0,1,39,70.19q0-.08,0-.15V36.19a3.41,3.41,0,0,1,3-3.38,3.52,3.52,0,0,1,2.29.57l27,16.91a3.4,3.4,0,0,1,0,5.76Z" fill="#2d2d2d"/>
	</g>

	<style>
		g{
			display:none;
		}
		g:target{
			display:inline;
		}
	</style>
</svg>