<svg xmlns="http://www.w3.org/2000/svg" xmlns:xlink="http://www.w3.org/1999/xlink" viewBox="0 0 207.62 96">
	<g id="play-btn-big-alpha">
		<defs><linearGradient id="Gradiente_play-btn-big-alpha" x1="56.98" y1="-515.07" x2="36.98" y2="-574.4" gradientTransform="matrix(1, 0, 0, -1, 0, -484.65)" gradientUnits="userSpaceOnUse"><stop offset="0" stop-color="#cf0"/><stop offset="0.49" stop-color="#b9e500"/><stop offset="0.61" stop-color="#b0dd00"/><stop offset="0.81" stop-color="#97c600"/><stop offset="1" stop-color="#7aac00"/></linearGradient></defs><title>vagaPlayExt_alpha</title><rect x="25.86" y="22.69" width="181.75" height="65.97" rx="32.98" ry="32.98" fill="#fff" opacity="0.3"/><path d="M116.4,43.4a14.77,14.77,0,0,1,4,.51,8.37,8.37,0,0,1,3.05,1.54A6.87,6.87,0,0,1,125.43,48a8.76,8.76,0,0,1,.68,3.58,8.85,8.85,0,0,1-.68,3.61,6.71,6.71,0,0,1-1.95,2.56,8.71,8.71,0,0,1-3.05,1.54,14.27,14.27,0,0,1-4,.53h-4.49V67A1,1,0,0,1,111,68h-4.59a1,1,0,0,1-.95-.95V44.34a1,1,0,0,1,.95-.95Zm-4.49,11h4.31a4.27,4.27,0,0,0,2.44-.65,2.82,2.82,0,0,0,0-4.24,4.28,4.28,0,0,0-2.44-.65h-4.31Z" fill="#cf0"/><path d="M144.67,62.34a1,1,0,0,1,.95.95V67a1,1,0,0,1-.95.95H128.43a1,1,0,0,1-.95-.95V44.34a1,1,0,0,1,.95-.95H133a1,1,0,0,1,.95.95v18Z" fill="#cf0"/><path d="M162.62,43.4a1.41,1.41,0,0,1,1.07.39,2.27,2.27,0,0,1,.51.77l7.65,22.1a1.61,1.61,0,0,1,.14.53.78.78,0,0,1-.77.77h-4.42a1.38,1.38,0,0,1-1-.3,1.28,1.28,0,0,1-.37-.58l-1-2.91h-9.33l-1,2.91a1.31,1.31,0,0,1-.37.58,1.39,1.39,0,0,1-1,.3h-4.42a.78.78,0,0,1-.77-.77,1.59,1.59,0,0,1,.14-.53l7.65-22.1a2.27,2.27,0,0,1,.51-.77,1.41,1.41,0,0,1,1.07-.39Zm-5.68,15.33h5.68l-2.84-8.42Z" fill="#cf0"/><path d="M184,67a1,1,0,0,1-.95.95h-4.59a1,1,0,0,1-.95-.95V59.53l-8.1-14.91a.93.93,0,0,1-.14-.46.78.78,0,0,1,.77-.77h4.81a1.43,1.43,0,0,1,1.05.35,2,2,0,0,1,.42.53l4.42,8.63,4.46-8.63a2,2,0,0,1,.42-.53,1.43,1.43,0,0,1,1.05-.35h4.81a.78.78,0,0,1,.77.77.93.93,0,0,1-.14.46L184,59.53Z" fill="#cf0"/><path d="M93.67,49c-5.29-11-12.43-15.66-17-19.59a67.85,67.85,0,0,0-10.36-6.09A38.24,38.24,0,0,1,69,13.57c3.39-8.62,8.24-2.93,9.78,2.23a7,7,0,0,0-7.47-9.32c-5.62.69-9.18,15.06-9.18,15.06h0L60.9,21c-1-.39-2-.75-3.09-1.11h0A28.13,28.13,0,0,0,46,5.46C39,1.34,27.36.12,15.32,6.19c0,0,28.77-7.56,37.54,12.25h0c-11.86-3.11-26.15-4-36.46.87C2.18,26-3.66,42.7,2.37,57,11.88,79.61,41.81,96.83,66,96.35,92.51,95.82,105.37,72.5,93.67,49Z" opacity="0.15"/><path d="M93.67,47c-5.29-11-12.43-15.66-17-19.59a67.85,67.85,0,0,0-10.36-6.09A38.24,38.24,0,0,1,69,11.57c3.39-8.62,8.24-2.93,9.78,2.23a7,7,0,0,0-7.47-9.32c-5.62.69-9.18,15.06-9.18,15.06h0L60.9,19c-1-.39-2-.75-3.09-1.11h0A28.13,28.13,0,0,0,46,3.46C39-.66,27.36-1.88,15.32,4.19c0,0,28.77-7.56,37.54,12.25h0c-11.86-3.11-26.15-4-36.46.87C2.18,24-3.66,40.7,2.37,55,11.88,77.61,41.81,94.83,66,94.35,92.51,93.82,105.37,70.5,93.67,47Z" fill="url(#Gradiente_play-btn-big-alpha)"/><path d="M16.43,18.32c10.31-4.83,24.59-4,36.46-.87h0c-.17-.39-.37-.75-.55-1.12-11.75-3-25.74-3.74-35.88,1A28.6,28.6,0,0,0,0,44,28.56,28.56,0,0,1,16.43,18.32Z" fill="#eeffa9"/><path d="M76.66,28.48C81.24,32.41,88.37,37,93.67,48A39.1,39.1,0,0,1,98,64.84,38.7,38.7,0,0,0,93.67,47c-5.29-11-12.43-15.66-17-19.59a67.76,67.76,0,0,0-10.24-6c-.05.34-.1.67-.12.94A67.85,67.85,0,0,1,76.66,28.48Z" fill="#eeffa9"/><path d="M46,4.46A28.13,28.13,0,0,1,57.86,18.93h0c1.06.36,2.1.72,3.09,1.11.43.17.82.36,1.24.53h0S65.75,6.18,71.37,5.49A6.87,6.87,0,0,1,79.19,12a6.93,6.93,0,0,0-7.82-7.56c-5.62.69-9.18,15.06-9.18,15.06h0L61,19c-1-.39-2-.75-3.09-1.11h0A28.13,28.13,0,0,0,46,3.46C39-.66,27.36-1.88,15.32,4.19c0,0,1.59-.41,4.12-.79C30-.55,39.77.82,46,4.46Z" fill="#eeffa9"/><path d="M71.34,56,44.18,73A3.37,3.37,0,0,1,39,70.19q0-.08,0-.15V36.19a3.41,3.41,0,0,1,3-3.38,3.52,3.52,0,0,1,2.29.57l27,16.91a3.4,3.4,0,0,1,0,5.76Z" fill="#2d2d2d"/>	
	</g>
	<g id="play-btn-big-hover">
		<defs><linearGradient id="Gradiente_play-btn-big-hover" x1="56.98" y1="715.07" x2="36.98" y2="774.4" gradientTransform="translate(0 -684.65)" gradientUnits="userSpaceOnUse"><stop offset="0" stop-color="#cf0"/><stop offset="0.49" stop-color="#b9e500"/><stop offset="0.61" stop-color="#b0dd00"/><stop offset="0.81" stop-color="#97c600"/><stop offset="1" stop-color="#7aac00"/></linearGradient></defs><title>play-btn-big-hover</title><rect x="25.87" y="22.69" width="181.75" height="65.97" rx="32.98" ry="32.98" style="fill:#0ac;isolation:isolate"/><path d="M116.4,43.4a15,15,0,0,1,4,.51,8.38,8.38,0,0,1,3,1.54,6.88,6.88,0,0,1,2,2.55,8.61,8.61,0,0,1,.68,3.58,8.75,8.75,0,0,1-.68,3.61,6.64,6.64,0,0,1-2,2.56,8.79,8.79,0,0,1-3,1.54,14.23,14.23,0,0,1-4,.53h-4.49V67a1,1,0,0,1-.94,1h-4.59a1,1,0,0,1-1-1V44.34a1,1,0,0,1,1-1Zm-4.49,11h4.31a4.29,4.29,0,0,0,2.44-.65,2.82,2.82,0,0,0,.26-4,3.19,3.19,0,0,0-.26-.26,4.29,4.29,0,0,0-2.44-.65h-4.31Z" transform="translate(0.01 0)" style="fill:#fff"/><path d="M144.67,62.34a1,1,0,0,1,1,.95V67a1,1,0,0,1-1,1H128.43a1,1,0,0,1-1-1V44.34a1,1,0,0,1,1-1H133a1,1,0,0,1,.95,1v18Z" transform="translate(0.01 0)" style="fill:#fff"/><path d="M162.62,43.4a1.41,1.41,0,0,1,1.07.39,2.35,2.35,0,0,1,.51.77l7.65,22.1a1.67,1.67,0,0,1,.14.53.79.79,0,0,1-.77.77H166.8a1.25,1.25,0,0,1-1.37-.88l-1-2.91H155.1l-1,2.91a1.25,1.25,0,0,1-1.37.88h-4.42a.79.79,0,0,1-.77-.77,1.67,1.67,0,0,1,.14-.53l7.65-22.1a2.35,2.35,0,0,1,.51-.77,1.41,1.41,0,0,1,1.07-.39Zm-5.68,15.33h5.68l-2.84-8.42Z" transform="translate(0.01 0)" style="fill:#fff"/><path d="M184,67a1,1,0,0,1-.95,1h-4.59a1,1,0,0,1-1-1V59.53l-8.1-14.91a1,1,0,0,1-.14-.46.79.79,0,0,1,.77-.77h4.81a1.44,1.44,0,0,1,1.05.35,2,2,0,0,1,.42.53l4.42,8.63,4.46-8.63a2,2,0,0,1,.42-.53,1.44,1.44,0,0,1,1-.35h4.81a.79.79,0,0,1,.77.77,1,1,0,0,1-.14.46L184,59.53Z" transform="translate(0.01 0)" style="fill:#fff"/><path d="M93.67,49c-5.29-11-12.43-15.66-17-19.59a68.1,68.1,0,0,0-10.36-6.09A38.47,38.47,0,0,1,69,13.57c3.39-8.62,8.24-2.93,9.78,2.23a7,7,0,0,0-7.47-9.32c-5.62.69-9.18,15.06-9.18,15.06h0L60.9,21c-1-.39-2-.75-3.09-1.11h0A28.16,28.16,0,0,0,46,5.46C39,1.34,27.36.12,15.32,6.19c0,0,28.77-7.56,37.54,12.25h0c-11.86-3.11-26.15-4-36.46.87C2.18,26-3.66,42.7,2.37,57,11.88,79.61,41.81,96.83,66,96.35,92.51,95.82,105.37,72.5,93.67,49Z" transform="translate(0.01 0)" style="opacity:0.15000000596046448;isolation:isolate"/><path d="M93.67,47c-5.29-11-12.43-15.66-17-19.59a68.1,68.1,0,0,0-10.36-6.09A38.47,38.47,0,0,1,69,11.57C72.39,3,77.24,8.64,78.78,13.8a7,7,0,0,0-7.47-9.32c-5.62.69-9.18,15.06-9.18,15.06h0L60.9,19c-1-.39-2-.75-3.09-1.11h0A28.16,28.16,0,0,0,46,3.46c-7-4.12-18.64-5.34-30.68.73,0,0,28.77-7.56,37.54,12.25h0c-11.86-3.11-26.15-4-36.46.87C2.18,24-3.66,40.7,2.37,55,11.88,77.61,41.81,94.83,66,94.35,92.51,93.82,105.37,70.5,93.67,47Z" transform="translate(0.01 0)" style="fill:url(#Gradiente_play-btn-big-hover)"/><path d="M16.43,18.32c10.31-4.83,24.59-4,36.46-.87h0c-.17-.39-.37-.75-.55-1.12-11.75-3-25.74-3.74-35.88,1A28.6,28.6,0,0,0,0,44,28.57,28.57,0,0,1,16.43,18.32Z" transform="translate(0.01 0)" style="fill:#eeffa9"/><path d="M76.66,28.48C81.24,32.41,88.37,37,93.67,48A39.07,39.07,0,0,1,98,64.84,38.71,38.71,0,0,0,93.67,47c-5.29-11-12.43-15.66-17-19.59a67.72,67.72,0,0,0-10.24-6c-.05.34-.1.67-.12.94A67.41,67.41,0,0,1,76.66,28.48Z" transform="translate(0.01 0)" style="fill:#eeffa9"/><path d="M46,4.46A28.13,28.13,0,0,1,57.86,18.93h0c1.06.36,2.1.72,3.09,1.11.43.17.82.36,1.24.53h0S65.75,6.18,71.37,5.49a6.87,6.87,0,0,1,7.76,5.85q0,.33.06.66A6.93,6.93,0,0,0,73,4.41a7.32,7.32,0,0,0-1.62,0c-5.62.69-9.18,15.06-9.18,15.06h0L61,19c-1-.39-2-.75-3.09-1.11h0A28.14,28.14,0,0,0,46,3.46c-7-4.12-18.64-5.34-30.68.73,0,0,1.59-.41,4.12-.79C30-.55,39.77.82,46,4.46Z" transform="translate(0.01 0)" style="fill:#eeffa9"/><path d="M71.34,56,44.18,73A3.37,3.37,0,0,1,39,70.19v-34a3.41,3.41,0,0,1,3-3.38,3.5,3.5,0,0,1,2.29.57l27,16.91a3.4,3.4,0,0,1,0,5.76Z" transform="translate(0.01 0)" style="fill:#2d2d2d"/>
	</g>
	<g id="play-btn-big-pressed">
	<path style="fill:#007788;" d="M58.8,22.7h115.8c18.2,0,33,14.8,33,33v0c0,18.2-14.8,33-33,33H58.8c-18.2,0-33-14.8-33-33v0
		C25.9,37.5,40.6,22.7,58.8,22.7z"/>
	<path style="fill:#FFFFFF;" d="M116.4,43.4c1.4,0,2.7,0.2,4,0.5c1.1,0.3,2.2,0.8,3.1,1.5c0.9,0.7,1.5,1.6,2,2.5c0.5,1.1,0.7,2.4,0.7,3.6
		c0,1.2-0.2,2.5-0.7,3.6c-0.4,1-1.1,1.9-1.9,2.6c-0.9,0.7-1.9,1.2-3.1,1.5c-1.3,0.4-2.6,0.5-4,0.5h-4.5V67c0,0.5-0.4,1-0.9,1h-4.6
		c-0.5,0-0.9-0.4-0.9-0.9V44.3c0-0.5,0.4-0.9,0.9-1L116.4,43.4z M111.9,54.4h4.3c0.9,0,1.7-0.2,2.4-0.7c1.2-1,1.3-2.8,0.3-4
		c-0.1-0.1-0.2-0.2-0.3-0.3c-0.7-0.5-1.6-0.7-2.4-0.7h-4.3V54.4z"/>
	<path style="fill:#FFFFFF;" d="M144.7,62.3c0.5,0,0.9,0.4,0.9,1V67c0,0.5-0.4,0.9-0.9,0.9h-16.2c-0.5,0-0.9-0.4-0.9-0.9V44.3
		c0-0.5,0.4-0.9,0.9-1h4.6c0.5,0,0.9,0.4,0.9,1v18H144.7z"/>
	<path style="fill:#FFFFFF;" d="M162.6,43.4c0.4,0,0.8,0.1,1.1,0.4c0.2,0.2,0.4,0.5,0.5,0.8l7.6,22.1c0.1,0.2,0.1,0.3,0.1,0.5
		c0,0.4-0.3,0.8-0.8,0.8h-4.4c-0.4,0-0.7-0.1-1-0.3c-0.2-0.2-0.3-0.4-0.4-0.6l-1-2.9h-9.3l-1,2.9c-0.1,0.2-0.2,0.4-0.4,0.6
		c-0.3,0.2-0.6,0.3-1,0.3h-4.4c-0.4,0-0.8-0.3-0.8-0.8c0-0.2,0.1-0.4,0.1-0.5l7.6-22.1c0.1-0.3,0.3-0.6,0.5-0.8
		c0.3-0.3,0.7-0.4,1.1-0.4L162.6,43.4z M156.9,58.7h5.7l-2.8-8.4L156.9,58.7z"/>
	<path style="fill:#FFFFFF;" d="M184,67c0,0.5-0.4,0.9-0.9,0.9h-4.6c-0.5,0-0.9-0.4-0.9-0.9v-7.5l-8.1-14.9c-0.1-0.1-0.1-0.3-0.1-0.5
		c0-0.4,0.3-0.8,0.8-0.8h4.8c0.4,0,0.8,0.1,1.1,0.3c0.2,0.2,0.3,0.3,0.4,0.5l4.4,8.6l4.5-8.6c0.1-0.2,0.3-0.4,0.4-0.5
		c0.3-0.3,0.7-0.4,1.1-0.3h4.8c0.4,0,0.8,0.3,0.8,0.8c0,0.2-0.1,0.3-0.1,0.5L184,59.5V67z"/>
		<path style="opacity:0.15;enable-background:new;" d="M93.7,49c-5.3-11-12.4-15.7-17-19.6c-3.3-2.3-6.7-4.4-10.4-6.1c0.5-3.4,1.4-6.6,2.7-9.8
			c3.4-8.6,8.2-2.9,9.8,2.2c1.3-3.6-0.6-7.6-4.2-9c-1-0.4-2.2-0.5-3.3-0.4c-5.6,0.7-9.2,15.1-9.2,15.1l0,0L60.9,21
			c-1-0.4-2-0.8-3.1-1.1l0,0c-2.2-6-6.3-11.1-11.8-14.4c-7-4.1-18.6-5.3-30.7,0.7c0,0,28.8-7.6,37.5,12.3l0,0
			c-11.9-3.1-26.2-4-36.5,0.9C2.2,26-3.6,42.7,2.4,57C11.9,79.6,41.8,96.8,66,96.3C92.5,95.8,105.4,72.5,93.7,49z"/>
		
			<linearGradient id="SVGID_1_" gradientUnits="userSpaceOnUse" x1="31.6005" y1="14.281" x2="64.6005" y2="74.111" gradientTransform="matrix(1 0 0 -1 0 98)">
			<stop  offset="0" style="stop-color:#CCFF00"/>
			<stop  offset="0.49" style="stop-color:#B9E500"/>
			<stop  offset="0.61" style="stop-color:#B0DD00"/>
			<stop  offset="0.81" style="stop-color:#97C600"/>
			<stop  offset="1" style="stop-color:#7AAC00"/>
		</linearGradient>
		<path style="fill:url(#SVGID_1_);" d="M93.7,47c-5.3-11-12.4-15.7-17-19.6c-3.3-2.3-6.7-4.4-10.4-6.1c0.5-3.4,1.4-6.6,2.7-9.8
			c3.4-8.6,8.2-2.9,9.8,2.2c1.3-3.6-0.6-7.6-4.2-9c-1-0.4-2.2-0.5-3.3-0.4c-5.6,0.7-9.2,15.1-9.2,15.1l0,0L60.9,19
			c-1-0.4-2-0.8-3.1-1.1l0,0c-2.2-6-6.3-11.1-11.8-14.4c-7-4.1-18.6-5.3-30.7,0.7c0,0,28.8-7.6,37.5,12.3l0,0
			c-11.9-3.1-26.2-4-36.5,0.9C2.2,24-3.6,40.7,2.4,55C11.9,77.6,41.8,94.8,66,94.3C92.5,93.8,105.4,70.5,93.7,47z"/>
		<path style="fill:#CCFF00;" d="M16.4,18.3c10.3-4.8,24.6-4,36.5-0.9l0,0c-0.2-0.4-0.4-0.8-0.5-1.1c-11.8-3-25.7-3.7-35.9,1
			C6.2,22.2-0.3,32.6,0,44C0.1,33,6.5,23,16.4,18.3z"/>
		<path style="fill:#CCFF00;" d="M76.7,28.5c4.6,3.9,11.7,8.5,17,19.5c2.7,5.2,4.2,11,4.3,16.8c0-6.2-1.5-12.3-4.3-17.8
			c-5.3-11-12.4-15.7-17-19.6c-3.2-2.3-6.7-4.3-10.2-6c-0.1,0.3-0.1,0.7-0.1,0.9C69.9,24.1,73.4,26.1,76.7,28.5z"/>
		<path style="fill:#CCFF00;" d="M46,4.5c5.5,3.3,9.7,8.4,11.9,14.5l0,0c1.1,0.4,2.1,0.7,3.1,1.1c0.4,0.2,0.8,0.4,1.2,0.5l0,0
			c0,0,3.6-14.4,9.2-15.1c3.8-0.5,7.2,2.1,7.8,5.8c0,0.2,0.1,0.4,0.1,0.7c0.4-3.8-2.4-7.2-6.2-7.6c-0.5-0.1-1.1,0-1.6,0
			c-5.6,0.7-9.2,15.1-9.2,15.1l0,0L61,19c-1-0.4-2-0.8-3.1-1.1l0,0c-2.2-6-6.4-11.1-11.9-14.4c-7-4.1-18.6-5.3-30.7,0.7
			c0,0,1.6-0.4,4.1-0.8C30-0.6,39.8,0.8,46,4.5z"/>
		<path style="fill:#2D2D2D;" d="M71.4,56L44.2,73c-1.6,1-3.7,0.5-4.7-1c-0.3-0.5-0.5-1.1-0.5-1.8c0-0.1,0-0.1,0-0.2V36.2c0-1.7,1.3-3.2,3-3.4
			c0.8-0.1,1.6,0.1,2.3,0.6l27,16.9c1.6,1,2.1,3.1,1.1,4.7C72.1,55.4,71.7,55.8,71.4,56L71.4,56z"/>
	</g>		
	<g id="play-btn-big">
		<defs><linearGradient id="Gradiente_play-btn-big" x1="56.98" y1="-230.34" x2="36.98" y2="-289.67" gradientTransform="matrix(1, 0, 0, -1, 0, -199.92)" gradientUnits="userSpaceOnUse"><stop offset="0" stop-color="#cf0"/><stop offset="0.49" stop-color="#b9e500"/><stop offset="0.61" stop-color="#b0dd00"/><stop offset="0.81" stop-color="#97c600"/><stop offset="1" stop-color="#7aac00"/></linearGradient></defs><title>vagaPlayExt_normal</title><rect x="25.86" y="22.69" width="181.75" height="65.97" rx="32.98" ry="32.98" fill="#2d2d2d"/><path d="M116.4,43.4a14.77,14.77,0,0,1,4,.51,8.37,8.37,0,0,1,3.05,1.54A6.87,6.87,0,0,1,125.43,48a8.76,8.76,0,0,1,.68,3.58,8.85,8.85,0,0,1-.68,3.61,6.71,6.71,0,0,1-1.95,2.56,8.71,8.71,0,0,1-3.05,1.54,14.27,14.27,0,0,1-4,.53h-4.49V67A1,1,0,0,1,111,68h-4.59a1,1,0,0,1-.95-.95V44.34a1,1,0,0,1,.95-.95Zm-4.49,11h4.31a4.27,4.27,0,0,0,2.44-.65,2.82,2.82,0,0,0,0-4.24,4.28,4.28,0,0,0-2.44-.65h-4.31Z" fill="#fff"/><path d="M144.67,62.34a1,1,0,0,1,.95.95V67a1,1,0,0,1-.95.95H128.43a1,1,0,0,1-.95-.95V44.34a1,1,0,0,1,.95-.95H133a1,1,0,0,1,.95.95v18Z" fill="#fff"/><path d="M162.62,43.4a1.41,1.41,0,0,1,1.07.39,2.27,2.27,0,0,1,.51.77l7.65,22.1a1.61,1.61,0,0,1,.14.53.78.78,0,0,1-.77.77h-4.42a1.38,1.38,0,0,1-1-.3,1.28,1.28,0,0,1-.37-.58l-1-2.91h-9.33l-1,2.91a1.31,1.31,0,0,1-.37.58,1.39,1.39,0,0,1-1,.3h-4.42a.78.78,0,0,1-.77-.77,1.59,1.59,0,0,1,.14-.53l7.65-22.1a2.27,2.27,0,0,1,.51-.77,1.41,1.41,0,0,1,1.07-.39Zm-5.68,15.33h5.68l-2.84-8.42Z" fill="#fff"/><path d="M184,67a1,1,0,0,1-.95.95h-4.59a1,1,0,0,1-.95-.95V59.53l-8.1-14.91a.93.93,0,0,1-.14-.46.78.78,0,0,1,.77-.77h4.81a1.43,1.43,0,0,1,1.05.35,2,2,0,0,1,.42.53l4.42,8.63,4.46-8.63a2,2,0,0,1,.42-.53,1.43,1.43,0,0,1,1.05-.35h4.81a.78.78,0,0,1,.77.77.93.93,0,0,1-.14.46L184,59.53Z" fill="#fff"/><path d="M93.67,49c-5.29-11-12.43-15.66-17-19.59a67.85,67.85,0,0,0-10.36-6.09A38.24,38.24,0,0,1,69,13.57c3.39-8.62,8.24-2.93,9.78,2.23a7,7,0,0,0-7.47-9.32c-5.62.69-9.18,15.06-9.18,15.06h0L60.9,21c-1-.39-2-.75-3.09-1.11h0A28.13,28.13,0,0,0,46,5.46C39,1.34,27.36.12,15.32,6.19c0,0,28.77-7.56,37.54,12.25h0c-11.86-3.11-26.15-4-36.46.87C2.18,26-3.66,42.7,2.37,57,11.88,79.61,41.81,96.83,66,96.35,92.51,95.82,105.37,72.5,93.67,49Z" opacity="0.15"/><path d="M93.67,47c-5.29-11-12.43-15.66-17-19.59a67.85,67.85,0,0,0-10.36-6.09A38.24,38.24,0,0,1,69,11.57c3.39-8.62,8.24-2.93,9.78,2.23a7,7,0,0,0-7.47-9.32c-5.62.69-9.18,15.06-9.18,15.06h0L60.9,19c-1-.39-2-.75-3.09-1.11h0A28.13,28.13,0,0,0,46,3.46C39-.66,27.36-1.88,15.32,4.19c0,0,28.77-7.56,37.54,12.25h0c-11.86-3.11-26.15-4-36.46.87C2.18,24-3.66,40.7,2.37,55,11.88,77.61,41.81,94.83,66,94.35,92.51,93.82,105.37,70.5,93.67,47Z" fill="url(#Gradiente_play-btn-big)"/><path d="M16.43,18.32c10.31-4.83,24.59-4,36.46-.87h0c-.17-.39-.37-.75-.55-1.12-11.75-3-25.74-3.74-35.88,1A28.6,28.6,0,0,0,0,44,28.56,28.56,0,0,1,16.43,18.32Z" fill="#eeffa9"/><path d="M76.66,28.48C81.24,32.41,88.37,37,93.67,48A39.1,39.1,0,0,1,98,64.84,38.7,38.7,0,0,0,93.67,47c-5.29-11-12.43-15.66-17-19.59a67.76,67.76,0,0,0-10.24-6c-.05.34-.1.67-.12.94A67.85,67.85,0,0,1,76.66,28.48Z" fill="#eeffa9"/><path d="M46,4.46A28.13,28.13,0,0,1,57.86,18.93h0c1.06.36,2.1.72,3.09,1.11.43.17.82.36,1.24.53h0S65.75,6.18,71.37,5.49A6.87,6.87,0,0,1,79.19,12a6.93,6.93,0,0,0-7.82-7.56c-5.62.69-9.18,15.06-9.18,15.06h0L61,19c-1-.39-2-.75-3.09-1.11h0A28.13,28.13,0,0,0,46,3.46C39-.66,27.36-1.88,15.32,4.19c0,0,1.59-.41,4.12-.79C30-.55,39.77.82,46,4.46Z" fill="#eeffa9"/><path d="M71.34,56,44.18,73A3.37,3.37,0,0,1,39,70.19q0-.08,0-.15V36.19a3.41,3.41,0,0,1,3-3.38,3.52,3.52,0,0,1,2.29.57l27,16.91a3.4,3.4,0,0,1,0,5.76Z" fill="#2d2d2d"/>	
	</g>


	<style>
		g{
			display:none;
		}
		g:target{
			display:inline;
		}
	</style>
</svg>