<svg id="Layer_1" data-name="Layer 1" xmlns="http://www.w3.org/2000/svg" viewBox="0 0 970.06 287.33"><defs><style>.cls-1{fill:#7d7c7d;fill-rule:evenodd;}</style></defs><title>appstore-badge_full</title><path class="cls-1" d="M437.12,163.21a14.28,14.28,0,0,0-9.22,3.37,15.62,15.62,0,0,0-5.4,8.84,18,18,0,0,0-.64,4.19v10.31A16.52,16.52,0,0,0,426,201.3a13.71,13.71,0,0,0,10.75,4.64,14.06,14.06,0,0,0,12.08-6q4.33-6,4.33-15.78,0-9-4.07-14.88A14.06,14.06,0,0,0,437.12,163.21Z"/><path class="cls-1" d="M359.55,141.08h-.26q-1.27,5.47-4.07,16.15l-7.12,22.39h23l-7.25-22.39Q362.72,153.8,359.55,141.08Z"/><path class="cls-1" d="M460.43,89.95a4.58,4.58,0,0,0,1.3,3.56A4.71,4.71,0,0,0,465,94.7a6.84,6.84,0,0,0,4.14-1.4,5.73,5.73,0,0,0,2.33-3.59,5.26,5.26,0,0,0,.12-1.19V83.83Q460.43,83.64,460.43,89.95Z"/><path class="cls-1" d="M349.05,72.52a5.78,5.78,0,0,0,2.27-4.75q0-6.18-8.2-6.18a19.83,19.83,0,0,0-4.42.38V74.33h4.16A9.66,9.66,0,0,0,349.05,72.52Z"/><path class="cls-1" d="M349.6,92.52a6.5,6.5,0,0,0,3-5.82A6.37,6.37,0,0,0,349.66,81a12.35,12.35,0,0,0-7-1.75h-4V94a23.36,23.36,0,0,0,4.11.25A11.91,11.91,0,0,0,349.6,92.52Z"/><path class="cls-1" d="M575.72,89.95A4.58,4.58,0,0,0,577,93.51a4.69,4.69,0,0,0,3.29,1.19,6.85,6.85,0,0,0,4.14-1.4,5.79,5.79,0,0,0,2.33-3.59,4.88,4.88,0,0,0,.12-1.19V83.83Q575.71,83.64,575.72,89.95Z"/><path class="cls-1" d="M374.46,89.95a4.58,4.58,0,0,0,1.3,3.56,4.71,4.71,0,0,0,3.29,1.19,6.84,6.84,0,0,0,4.14-1.4,5.73,5.73,0,0,0,2.33-3.59,5.28,5.28,0,0,0,.12-1.19V83.83Q374.45,83.64,374.46,89.95Z"/><path class="cls-1" d="M508.23,163.21a14.3,14.3,0,0,0-9.22,3.37,15.62,15.62,0,0,0-5.4,8.84,18.34,18.34,0,0,0-.64,4.19v10.31a16.57,16.57,0,0,0,4.12,11.39,13.74,13.74,0,0,0,10.76,4.64,14.06,14.06,0,0,0,12.08-6q4.32-6,4.33-15.78,0-9-4.08-14.88A14,14,0,0,0,508.23,163.21Z"/><path class="cls-1" d="M821.75,167.41q-3.57-5.73-10.94-5.73a13,13,0,0,0-10.93,5.6A20.49,20.49,0,0,0,795.81,178h28.61A18.66,18.66,0,0,0,821.75,167.41Z"/><path class="cls-1" d="M930.79,0H39.27A39.38,39.38,0,0,0,0,39.27v208.8a39.38,39.38,0,0,0,39.27,39.27H930.79a39.38,39.38,0,0,0,39.27-39.27V39.27A39.38,39.38,0,0,0,930.79,0ZM580.42,72.77A14.16,14.16,0,0,0,572.5,75l-1.37-4.43A19.49,19.49,0,0,1,581.55,68q11.92,0,11.92,12.56V91.71a46.76,46.76,0,0,0,.43,7.24h-6.06l-.49-3.5h-.19a10.43,10.43,0,0,1-8.87,4.19,9.16,9.16,0,0,1-6.94-2.75A8.61,8.61,0,0,1,569,90.7a9.43,9.43,0,0,1,4.66-8.5q4.64-2.94,13.08-2.87v-.57Q586.72,72.77,580.42,72.77Zm-84.76-4.18.25,5.81h.19a10.22,10.22,0,0,1,3.37-4.81A8.13,8.13,0,0,1,504.35,68a10.16,10.16,0,0,1,1.69.12v6.44a11.2,11.2,0,0,0-2.13-.19,6.41,6.41,0,0,0-5.5,2.69,10.13,10.13,0,0,0-1.69,6V99H490L490,78.15q0-5.25-.24-9.56Zm-76.36,0h7.5l3.81,6.06q1.12,1.75,2.82,4.81h.19c.91-1.79,1.83-3.44,2.75-4.93l3.56-5.94h7.38L437.25,83.2,447.5,98.95h-7.63l-3.94-6.37q-1.31-2.13-2.87-5.06h-.13c-.62,1.21-1.58,2.89-2.87,5.06l-3.75,6.37h-7.38l10.36-15.5Zm-40.15,4.19A14.12,14.12,0,0,0,371.24,75l-1.37-4.43A19.47,19.47,0,0,1,380.28,68q11.91,0,11.92,12.56V91.71a47.58,47.58,0,0,0,.43,7.24h-6.06l-.5-3.5h-.19A10.41,10.41,0,0,1,377,99.64a9.16,9.16,0,0,1-6.94-2.75,8.62,8.62,0,0,1-2.37-6.18,9.43,9.43,0,0,1,4.66-8.5q4.65-2.94,13.09-2.87v-.57Q385.45,72.77,379.15,72.77ZM332,57.39a53.1,53.1,0,0,1,10.47-.88q7.73,0,11.69,2.82a9.39,9.39,0,0,1,2.13,13.22,10.71,10.71,0,0,1-5.11,3.65v.19A11.53,11.53,0,0,1,357,79.76a10.31,10.31,0,0,1,2.63,7.13,10.85,10.85,0,0,1-3.81,8.5q-4.37,3.93-15,3.94a71.6,71.6,0,0,1-8.88-.5ZM207.81,65c5.87-6.89,16.06-12.16,24.21-12.52,1.07,9.72-2.78,19.3-8.41,26.34-5.87,6.93-15.27,12.23-24.43,11.55C198,81,202.61,71.06,207.81,65Zm47,131.41c-6.75,10.09-13.82,20-25.06,20.14-10.91.25-14.58-6.42-27.1-6.42s-16.54,6.24-27,6.67c-10.7.39-18.87-10.78-25.87-20.78-14-20.43-24.87-57.56-10.27-82.84,7.07-12.39,20-20.38,33.76-20.59,10.71-.22,20.65,7.23,27.24,7.23s18.75-8.92,31.42-7.58c5.3.15,20.39,2.09,30.12,16.29-.79.47-18,10.57-17.79,31.33.21,24.89,21.77,33.11,22,33.2A82.66,82.66,0,0,1,254.79,196.4Zm126.76,19-8-25.18H345.68L338,215.36H323.8l27.6-85.73h17l27.73,85.73ZM404.44,56.65a4.39,4.39,0,0,1,5.88,0,3.77,3.77,0,0,1,1.19,2.87,3.88,3.88,0,0,1-1.19,2.94,4.26,4.26,0,0,1-3.07,1.13,3.86,3.86,0,0,1-2.84-1.15,3.94,3.94,0,0,1-1.16-2.91A3.79,3.79,0,0,1,404.44,56.65ZM404,68.58h6.75V98.95H404Zm54.62,140a24.92,24.92,0,0,1-19,8.14q-12.21,0-17.55-8.77h-.26v32.56H408.12V173.89q0-9.91-.51-20.35h12.08l.77,9.8h.26q6.87-11.07,20.86-11.07a22.93,22.93,0,0,1,18.25,8.65q7.32,8.66,7.32,22.77Q467.14,199.46,458.62,208.62ZM472.55,98.95l-.5-3.5h-.19A10.41,10.41,0,0,1,463,99.64a9.16,9.16,0,0,1-6.94-2.75,8.62,8.62,0,0,1-2.37-6.18,9.43,9.43,0,0,1,4.66-8.5q4.65-2.94,13.09-2.87v-.57q0-6-6.3-6A14.12,14.12,0,0,0,457.22,75l-1.37-4.43A19.47,19.47,0,0,1,466.26,68q11.91,0,11.92,12.56V91.71a46.7,46.7,0,0,0,.43,7.24Zm57.17,109.67a24.9,24.9,0,0,1-18.95,8.14q-12.21,0-17.55-8.77H493v32.56H479.23V173.89q0-9.91-.51-20.35H490.8l.77,9.8h.26q6.86-11.07,20.86-11.07a23,23,0,0,1,18.26,8.65q7.31,8.66,7.31,22.77Q538.24,199.46,529.71,208.62ZM552.52,98.95V81.56q0-8-6.11-8a6.11,6.11,0,0,0-4.88,2.21,7.84,7.84,0,0,0-1.87,5.21v18h-6.74V77.26c0-2.67-.09-5.56-.25-8.69h5.94l.32,4.75h.19a9.65,9.65,0,0,1,3.5-3.67,11.39,11.39,0,0,1,6.11-1.71,9.7,9.7,0,0,1,7.07,2.75q3.49,3.37,3.5,10.06V98.95Zm57.6,110.18q-8.38,7.51-23.35,7.5-13.84,0-22.22-5.34l3.18-11.45a37.65,37.65,0,0,0,19.85,5.48q7.76,0,12.09-3.5a11.44,11.44,0,0,0,4.32-9.37,11.94,11.94,0,0,0-3.56-8.79q-3.55-3.57-11.83-6.63-22.51-8.4-22.51-24.58A21.75,21.75,0,0,1,574,135.13q7.87-6.75,21-6.75,11.7,0,19.45,4.07L611,143.64a33.76,33.76,0,0,0-16.41-3.94q-7.25,0-11.31,3.56a10.18,10.18,0,0,0-3.43,7.76,10.48,10.48,0,0,0,3.94,8.39q3.43,3.05,12.47,6.62,11.06,4.45,16.28,10.42a21.77,21.77,0,0,1,5.21,14.86Q617.74,202.26,610.12,209.13Zm53-45.27H648v30q0,11.45,8,11.45a24.42,24.42,0,0,0,6.1-.64l.38,10.43a31.12,31.12,0,0,1-10.68,1.52q-8.14,0-12.72-5T634.52,195V163.84h-9V153.53h9V142.21L648,138.14v15.39h15.14Zm60.17,43.5q-8.53,9.42-22.65,9.41-13.61,0-21.68-9T670.91,185q0-14.37,8.33-23.53t22.44-9.16q13.61,0,21.88,9,7.89,8.76,7.9,22.63Q731.45,198.2,723.31,207.35Zm52.78-41.72a23.85,23.85,0,0,0-4.33-.38,13,13,0,0,0-11.2,5.48q-3.43,4.83-3.43,12.21v32.44H743.4l.13-42.35q0-10.69-.52-19.46h12l.5,11.83h.38a21.14,21.14,0,0,1,6.87-9.79,16.61,16.61,0,0,1,9.93-3.31,22,22,0,0,1,3.43.25ZM837,187.76h-41.2q.24,9.16,6,14,5.21,4.32,13.48,4.32a45.57,45.57,0,0,0,16.67-2.92l2.15,9.53q-8.77,3.83-20.72,3.82-14.38,0-22.59-8.46t-8.2-22.7q0-14,7.64-23.27,8-9.91,21.61-9.91,13.36,0,20.23,9.91,5.43,7.88,5.45,19.45A32.2,32.2,0,0,1,837,187.76Z"/><path class="cls-1" d="M701.18,162.32q-8.28,0-12.59,7.4c-2.47,4.08-3.68,9.05-3.68,14.93a27.77,27.77,0,0,0,3.68,14.66q4.45,7.4,12.47,7.4,7.87,0,12.33-7.52a30.83,30.83,0,0,0,.12-29.46Q709.19,162.32,701.18,162.32Z"/></svg>