<svg id="Layer_1" data-name="Layer 1" xmlns="http://www.w3.org/2000/svg" viewBox="0 0 970.06 287.33"><defs><style>.cls-1,.cls-2{fill:#7d7c7d;}.cls-2{fill-rule:evenodd;}</style></defs><title>appstore-badge</title><path class="cls-1" d="M244.22,139.86C244,119.1,261.22,109,262,108.53c-9.73-14.19-24.82-16.13-30.12-16.29-12.67-1.33-25,7.58-31.42,7.58s-16.52-7.45-27.24-7.23c-13.79.21-26.68,8.19-33.76,20.59-14.6,25.27-3.71,62.41,10.27,82.84,7,10,15.17,21.17,25.87,20.78,10.47-.43,14.38-6.67,27-6.67s16.19,6.67,27.1,6.42c11.23-.18,18.31-10,25.06-20.14a82.66,82.66,0,0,0,11.46-23.34C266,173,244.43,164.75,244.22,139.86Z"/><path class="cls-1" d="M223.6,78.81c5.63-7,9.48-16.62,8.41-26.34-8.15.36-18.34,5.64-24.21,12.52-5.19,6.07-9.83,16-8.63,25.37C208.33,91,217.73,85.74,223.6,78.81Z"/><path class="cls-1" d="M396.17,215.36H381.54l-8-25.18H345.68L338,215.36H323.8l27.6-85.73h17Zm-25.05-35.75-7.25-22.39q-1.15-3.43-4.32-16.15h-.26q-1.27,5.47-4.07,16.15l-7.12,22.39Z"/><path class="cls-1" d="M467.14,183.69q0,15.77-8.52,24.92a24.92,24.92,0,0,1-19,8.14q-12.21,0-17.55-8.77h-.26v32.56H408.12V173.89q0-9.91-.51-20.35h12.08l.77,9.8h.26q6.87-11.07,20.86-11.07a22.93,22.93,0,0,1,18.25,8.65Q467.15,169.58,467.14,183.69Zm-14,.5q0-9-4.07-14.88a14.06,14.06,0,0,0-12-6.11,14.28,14.28,0,0,0-9.22,3.37,15.63,15.63,0,0,0-5.4,8.84,18,18,0,0,0-.64,4.19v10.31A16.52,16.52,0,0,0,426,201.3a13.71,13.71,0,0,0,10.75,4.64,14.06,14.06,0,0,0,12.08-6Q453.15,194,453.15,184.19Z"/><path class="cls-1" d="M538.24,183.69q0,15.77-8.53,24.92a24.9,24.9,0,0,1-18.95,8.14q-12.21,0-17.55-8.77H493v32.56H479.23V173.89q0-9.91-.51-20.35H490.8l.77,9.8h.26q6.86-11.07,20.86-11.07a23,23,0,0,1,18.26,8.65Q538.24,169.58,538.24,183.69Zm-14,.5q0-9-4.08-14.88a14,14,0,0,0-11.95-6.11,14.3,14.3,0,0,0-9.22,3.37,15.62,15.62,0,0,0-5.4,8.84,18.33,18.33,0,0,0-.64,4.19v10.31a16.57,16.57,0,0,0,4.12,11.39,13.74,13.74,0,0,0,10.76,4.64,14.06,14.06,0,0,0,12.08-6Q524.25,194,524.26,184.19Z"/><path class="cls-1" d="M617.74,191.32q0,10.94-7.61,17.81-8.38,7.51-23.35,7.5-13.84,0-22.22-5.34l3.18-11.45a37.65,37.65,0,0,0,19.85,5.48q7.76,0,12.09-3.5a11.44,11.44,0,0,0,4.32-9.37,11.94,11.94,0,0,0-3.56-8.79q-3.55-3.57-11.83-6.63-22.51-8.4-22.51-24.58A21.75,21.75,0,0,1,574,135.13q7.87-6.75,21-6.75,11.7,0,19.45,4.07L611,143.64a33.75,33.75,0,0,0-16.41-3.94q-7.25,0-11.31,3.56a10.18,10.18,0,0,0-3.43,7.76,10.48,10.48,0,0,0,3.94,8.39q3.43,3.05,12.47,6.62,11.06,4.45,16.28,10.42A21.78,21.78,0,0,1,617.74,191.32Z"/><path class="cls-1" d="M663.14,163.85H648v30q0,11.45,8,11.45a24.43,24.43,0,0,0,6.1-.64l.38,10.43a31.12,31.12,0,0,1-10.68,1.52q-8.14,0-12.72-5T634.52,195V163.84h-9V153.53h9V142.21L648,138.14v15.39h15.14Z"/><path class="cls-1" d="M731.45,183.94q0,14.25-8.14,23.4-8.53,9.42-22.65,9.41-13.61,0-21.68-9T670.91,185q0-14.37,8.33-23.53t22.44-9.16q13.61,0,21.88,9Q731.45,170.08,731.45,183.94Zm-14.26.44a27.81,27.81,0,0,0-3.68-14.67q-4.32-7.4-12.33-7.4-8.28,0-12.59,7.4c-2.47,4.08-3.68,9.05-3.68,14.93a27.77,27.77,0,0,0,3.68,14.66q4.45,7.4,12.47,7.4,7.87,0,12.33-7.52A27.85,27.85,0,0,0,717.2,184.39Z"/><path class="cls-1" d="M776.09,165.62a23.85,23.85,0,0,0-4.33-.38,13,13,0,0,0-11.2,5.48q-3.43,4.83-3.43,12.21v32.43H743.4l.13-42.35q0-10.69-.52-19.46h12l.5,11.83h.38a21.14,21.14,0,0,1,6.87-9.79,16.61,16.61,0,0,1,9.93-3.31,22.05,22.05,0,0,1,3.43.25Z"/><path class="cls-1" d="M837.52,181.53a32.21,32.21,0,0,1-.5,6.23h-41.2q.24,9.16,6,14,5.21,4.32,13.48,4.32a45.57,45.57,0,0,0,16.67-2.92l2.15,9.53q-8.77,3.83-20.72,3.82-14.38,0-22.59-8.46t-8.2-22.7q0-14,7.64-23.27,8-9.91,21.61-9.91,13.36,0,20.23,9.91Q837.5,169.95,837.52,181.53ZM824.42,178a18.66,18.66,0,0,0-2.67-10.56q-3.57-5.73-10.94-5.73a13,13,0,0,0-10.93,5.6A20.49,20.49,0,0,0,795.81,178h28.61Z"/><path class="cls-1" d="M359.64,86.89a10.86,10.86,0,0,1-3.81,8.5q-4.37,3.93-15,3.94a71.59,71.59,0,0,1-8.88-.5V57.39a53.1,53.1,0,0,1,10.47-.88q7.73,0,11.69,2.82a9.39,9.39,0,0,1,2.13,13.22,10.71,10.71,0,0,1-5.11,3.65v.19A11.54,11.54,0,0,1,357,79.76,10.31,10.31,0,0,1,359.64,86.89Zm-8.31-19.12q0-6.18-8.2-6.18a19.84,19.84,0,0,0-4.42.38V74.33h4.16a9.66,9.66,0,0,0,6.18-1.81A5.78,5.78,0,0,0,351.32,67.77Zm1.26,18.93A6.37,6.37,0,0,0,349.66,81a12.35,12.35,0,0,0-7-1.75h-4V94a23.36,23.36,0,0,0,4.11.25,11.91,11.91,0,0,0,6.78-1.69A6.5,6.5,0,0,0,352.58,86.7Z"/><path class="cls-1" d="M392.63,98.95h-6.06l-.5-3.5h-.19A10.41,10.41,0,0,1,377,99.64a9.16,9.16,0,0,1-6.94-2.75,8.62,8.62,0,0,1-2.37-6.18,9.43,9.43,0,0,1,4.66-8.5q4.65-2.94,13.09-2.87v-.57q0-6-6.3-6A14.12,14.12,0,0,0,371.24,75l-1.37-4.43A19.47,19.47,0,0,1,380.28,68q11.91,0,11.92,12.56V91.71A47.57,47.57,0,0,0,392.63,98.95Zm-7-10.44V83.83q-11.18-.19-11.18,6.12a4.58,4.58,0,0,0,1.3,3.56,4.71,4.71,0,0,0,3.29,1.19,6.84,6.84,0,0,0,4.14-1.4,5.73,5.73,0,0,0,2.33-3.59A5.27,5.27,0,0,0,385.63,88.51Z"/><path class="cls-1" d="M411.5,59.52a3.88,3.88,0,0,1-1.19,2.94,4.26,4.26,0,0,1-3.07,1.13,3.86,3.86,0,0,1-2.84-1.15,3.94,3.94,0,0,1-1.16-2.91,3.79,3.79,0,0,1,1.19-2.88,4.39,4.39,0,0,1,5.88,0A3.78,3.78,0,0,1,411.5,59.52Zm-.75,39.43H404V68.58h6.75Z"/><path class="cls-1" d="M447.5,98.95h-7.63l-3.94-6.37q-1.31-2.13-2.87-5.06h-.13c-.62,1.21-1.58,2.89-2.87,5.06l-3.75,6.37h-7.38l10.37-15.5-10-14.87h7.5l3.81,6.06q1.12,1.75,2.82,4.81h.19c.91-1.79,1.83-3.44,2.75-4.93l3.56-5.94h7.38L437.25,83.2Z"/><path class="cls-1" d="M478.61,98.95h-6.06l-.5-3.5h-.19A10.41,10.41,0,0,1,463,99.64a9.16,9.16,0,0,1-6.94-2.75,8.62,8.62,0,0,1-2.37-6.18,9.43,9.43,0,0,1,4.66-8.5q4.65-2.94,13.09-2.87v-.57q0-6-6.3-6A14.12,14.12,0,0,0,457.22,75l-1.37-4.43A19.47,19.47,0,0,1,466.26,68q11.91,0,11.92,12.56V91.71A46.75,46.75,0,0,0,478.61,98.95Zm-7-10.44V83.83q-11.18-.19-11.18,6.12a4.58,4.58,0,0,0,1.3,3.56A4.71,4.71,0,0,0,465,94.7a6.84,6.84,0,0,0,4.14-1.4,5.73,5.73,0,0,0,2.33-3.59A5.27,5.27,0,0,0,471.61,88.51Z"/><path class="cls-1" d="M506,74.52a11.21,11.21,0,0,0-2.13-.19,6.41,6.41,0,0,0-5.5,2.69,10.13,10.13,0,0,0-1.69,6V99H490L490,78.15q0-5.25-.24-9.56h5.88l.25,5.81h.19a10.22,10.22,0,0,1,3.37-4.81A8.13,8.13,0,0,1,504.35,68a10.16,10.16,0,0,1,1.69.12Z"/><path class="cls-1" d="M559.28,98.95h-6.76V81.56q0-8-6.11-8a6.11,6.11,0,0,0-4.88,2.21,7.84,7.84,0,0,0-1.87,5.21v18h-6.74V77.26c0-2.67-.09-5.56-.25-8.69h5.94l.32,4.75h.19a9.66,9.66,0,0,1,3.5-3.67,11.39,11.39,0,0,1,6.11-1.71,9.7,9.7,0,0,1,7.07,2.75q3.49,3.37,3.5,10.06Z"/><path class="cls-1" d="M593.89,98.95h-6.06l-.49-3.5h-.19a10.43,10.43,0,0,1-8.87,4.19,9.16,9.16,0,0,1-6.94-2.75A8.61,8.61,0,0,1,569,90.7a9.43,9.43,0,0,1,4.66-8.5q4.64-2.94,13.08-2.87v-.57q0-6-6.29-6A14.16,14.16,0,0,0,572.5,75l-1.37-4.43A19.49,19.49,0,0,1,581.55,68q11.92,0,11.92,12.56V91.71A46.74,46.74,0,0,0,593.89,98.95Zm-7-10.44V83.83q-11.19-.19-11.18,6.12A4.58,4.58,0,0,0,577,93.51a4.69,4.69,0,0,0,3.29,1.19,6.85,6.85,0,0,0,4.14-1.4,5.78,5.78,0,0,0,2.33-3.59A4.89,4.89,0,0,0,586.9,88.51Z"/><path class="cls-2" d="M39.27,0H930.79a39.38,39.38,0,0,1,39.27,39.27v208.8a39.38,39.38,0,0,1-39.27,39.27H39.27A39.38,39.38,0,0,1,0,248.07V39.27A39.38,39.38,0,0,1,39.27,0Zm0,13A26.36,26.36,0,0,0,13,39.27v208.8a26.36,26.36,0,0,0,26.28,26.28H930.79a26.36,26.36,0,0,0,26.28-26.28V39.27A26.36,26.36,0,0,0,930.79,13Z"/></svg>