<svg id="Layer_1" data-name="Layer 1" xmlns="http://www.w3.org/2000/svg" viewBox="0 0 970.06 287.33"><defs><style>.cls-1{fill:#fff;fill-rule:evenodd;}</style></defs><title>gplay-badge_full</title><path class="cls-1" d="M693.49,68.92a16.94,16.94,0,0,0,0-12,13.68,13.68,0,0,0-3.06-4.64,14.1,14.1,0,0,0-4.56-3,15.09,15.09,0,0,0-11.21,0,14.1,14.1,0,0,0-4.56,3,13.65,13.65,0,0,0-3.06,4.64,16.94,16.94,0,0,0,0,12,13.64,13.64,0,0,0,3.06,4.64,14.1,14.1,0,0,0,4.56,3,15.09,15.09,0,0,0,11.21,0,14.1,14.1,0,0,0,4.56-3A13.66,13.66,0,0,0,693.49,68.92Z"/><path class="cls-1" d="M459.54,160.26h0c-10.3,0-18.21,8.23-18.21,19.25,0,11.26,8,19.4,18.17,19.4,9.24,0,17.89-7.62,17.89-19.31C477.39,167.67,468.7,160.26,459.54,160.26Z"/><path class="cls-1" d="M621.43,160h0c-9.21,0-17.95,9.49-16.72,18.71l28.5-11.91C631.42,163.05,627.24,160,621.43,160Z"/><path class="cls-1" d="M529.48,160.27c-9,0-17.79,7.29-17.79,19.51,0,11.76,8.49,19.16,17.6,19.16,8.59,0,17.18-6.85,17.18-19.28C546.48,167.43,537.87,160.27,529.48,160.27Z"/><path class="cls-1" d="M418.68,52.23a14.1,14.1,0,0,0-4.56-3,15.09,15.09,0,0,0-11.21,0,14.09,14.09,0,0,0-4.56,3,13.64,13.64,0,0,0-3.06,4.64,16.92,16.92,0,0,0,0,12,13.62,13.62,0,0,0,3.06,4.64,14.09,14.09,0,0,0,4.56,3,15.09,15.09,0,0,0,11.21,0,14.1,14.1,0,0,0,4.56-3,13.65,13.65,0,0,0,3.06-4.64,16.92,16.92,0,0,0,0-12A13.67,13.67,0,0,0,418.68,52.23Z"/><path class="cls-1" d="M373.34,59.12A6,6,0,0,0,375,55a6.5,6.5,0,0,0-.39-2.22,5.07,5.07,0,0,0-1.2-1.89,5.89,5.89,0,0,0-2-1.29,7.57,7.57,0,0,0-2.82-.48h-7.13V60.92h7.13A6.12,6.12,0,0,0,373.34,59.12Z"/><path class="cls-1" d="M389.21,160.26h0c-10.3,0-18.21,8.23-18.21,19.25,0,11.26,8,19.4,18.17,19.4,9.24,0,17.89-7.62,17.89-19.31C407.05,167.67,398.37,160.26,389.21,160.26Z"/><path class="cls-1" d="M283.91,72.9a11.41,11.41,0,0,0,2.7-4.35,18.28,18.28,0,0,0,0-11.33,11.42,11.42,0,0,0-2.7-4.34,12.17,12.17,0,0,0-4.5-2.79,18.06,18.06,0,0,0-6.23-1h-6.05V76.68h6.05a18.06,18.06,0,0,0,6.23-1A12.17,12.17,0,0,0,283.91,72.9Z"/><path class="cls-1" d="M813.23,197.93c7.67-2.09,13.72-7.7,15.51-15.5a60.11,60.11,0,0,0-11.67-2.79C793,176,797,202.35,813.23,197.93Z"/><path class="cls-1" d="M930.79,0H39.27A39.38,39.38,0,0,0,0,39.27v208.8a39.38,39.38,0,0,0,39.27,39.27H930.79a39.38,39.38,0,0,0,39.27-39.27V39.27A39.38,39.38,0,0,0,930.79,0ZM572,41.44h8.09V76.68h18.16v7.67H572Zm-91.22,0h8.09V84.35H480.8Zm-43.33,0h9.41l17.26,28.77h.48l-.48-8.27V41.44h8V84.35h-8.51L445.44,54H445l.48,8.27V84.35h-8ZM338.15,70.39a5.07,5.07,0,0,0-1.41-1.8A12.57,12.57,0,0,0,334.17,67a39.25,39.25,0,0,0-3.93-1.62l-2.64-1a20.22,20.22,0,0,1-3.51-1.62,15.38,15.38,0,0,1-3.21-2.46,12.11,12.11,0,0,1-2.37-3.39,10.11,10.11,0,0,1-.93-4.41,11.3,11.3,0,0,1,1-4.71A11.5,11.5,0,0,1,321.4,44a13.2,13.2,0,0,1,4.38-2.58A18.11,18.11,0,0,1,337,41.35a13.78,13.78,0,0,1,4,2.22,12.34,12.34,0,0,1,2.67,3,14.36,14.36,0,0,1,1.5,3.06l-7.13,3a7.61,7.61,0,0,0-2.19-3.24,6.24,6.24,0,0,0-4.35-1.44,7.4,7.4,0,0,0-4.38,1.23,3.76,3.76,0,0,0-1.74,3.21,4.06,4.06,0,0,0,1.68,3.27,18.27,18.27,0,0,0,5.33,2.61l2.7.9a31,31,0,0,1,4.71,2.07A14.74,14.74,0,0,1,343.52,64a11.32,11.32,0,0,1,2.34,3.69,13,13,0,0,1,.81,4.76,11.74,11.74,0,0,1-1.35,5.78,12.37,12.37,0,0,1-3.45,4,14.94,14.94,0,0,1-4.73,2.34,18.18,18.18,0,0,1-5.16.78,17.77,17.77,0,0,1-5.27-.78,15.2,15.2,0,0,1-4.62-2.34,16.17,16.17,0,0,1-3.66-3.81A18.42,18.42,0,0,1,316,73.14l7.61-3a11.61,11.61,0,0,0,2.94,5.36A7.4,7.4,0,0,0,332,77.64a8.86,8.86,0,0,0,2.43-.33,7.17,7.17,0,0,0,2.1-1A4.64,4.64,0,0,0,338,74.76a4.44,4.44,0,0,0,.54-2.22A5.34,5.34,0,0,0,338.15,70.39Zm-36-28.95h8.09V84.35h-8.09Zm-43.09,0h14.5A25.52,25.52,0,0,1,282.71,43a19.8,19.8,0,0,1,7,4.41,19.14,19.14,0,0,1,4.41,6.8,25.64,25.64,0,0,1,0,17.44,18.84,18.84,0,0,1-4.41,6.77,20,20,0,0,1-7,4.38,25.5,25.5,0,0,1-9.17,1.56H259ZM91.59,91.51l87.63,47.81-20.78,21L88.53,90.55A8.83,8.83,0,0,1,91.59,91.51ZM80.5,228c0-7.13-.61-120.34-.65-128.83,0-4.07,1.46-6.56,3.54-7.78l72.07,72L83.74,236C81.65,234.63,80.52,231.75,80.5,228Zm11.09,7.07a14.94,14.94,0,0,1-1.91.88l68.78-69.61,20.78,20.75Zm121.33-66.41L183.12,185l-21.68-21.65,21.66-21.92,29.82,16.27C220.27,161.71,216.51,166.72,212.92,168.68Zm92.4,42.78a50.16,50.16,0,0,1-50.61-49.63c0-25.64,21.76-49.38,49.89-49.38,22.09,0,34.2,13.48,34.2,13.48l-9.44,9.77A35,35,0,0,0,305.09,126c-19.8,0-35.6,15.71-35.6,36.11A35.42,35.42,0,0,0,305.05,198c14.84,0,30.56-8.06,32.16-27H305V157.53h45.42a40.42,40.42,0,0,1,.82,8.94C351.24,193.31,331.83,211.47,305.33,211.47Zm48-170h15.1a16.31,16.31,0,0,1,5.72,1,14.12,14.12,0,0,1,4.65,2.79,13.29,13.29,0,0,1,0,19.6,14.12,14.12,0,0,1-4.65,2.79,16.31,16.31,0,0,1-5.72,1h-7V84.35h-8.09Zm35.92,170C370,211.41,357,196.57,357,179.33a31.44,31.44,0,0,1,32-31.56c15.32,0,31.93,10.85,31.93,31.93C421,198.09,406.67,211.41,389.24,211.41ZM417.42,83.57a23.66,23.66,0,0,1-17.8,0,21.69,21.69,0,0,1-11.81-11.9,23.42,23.42,0,0,1,0-17.56,21.69,21.69,0,0,1,11.81-11.9,23.66,23.66,0,0,1,17.8,0,21.69,21.69,0,0,1,11.81,11.9,23.42,23.42,0,0,1,0,17.56,21.69,21.69,0,0,1-11.81,11.9Zm42.15,127.84c-19.26,0-32.21-14.84-32.21-32.08a31.44,31.44,0,0,1,32-31.56c15.32,0,31.93,10.85,31.93,31.93C491.28,198.09,477,211.41,459.57,211.41Zm28-173.33h-6.29l2.52-8.15H493Zm14.2,3.36,8.87,25.83,1.56,5.51h.48l1.68-5.51,9.23-25.83h8.75L516.71,84.35h-8.51L493,41.44Zm57,165.46c0,22.47-13,33.18-30,33.18-15.55,0-24.28-9.57-28.62-18.74l12.23-5.11c1.69,4.1,6.57,11.33,16.29,11.33,10.06,0,16.73-6.57,16.73-17.55v-6.27c-3.56,4.13-8.38,7.73-17.45,7.73-14.67,0-30.26-12.7-30.26-31.86,0-16.82,13.45-31.8,30.55-31.8h0a22.51,22.51,0,0,1,17.16,7.3v-5.39h13.34ZM564.6,49.11H545.48v9.95h17.2v7.67h-17.2v10H564.6v7.67H537.38V41.44H564.6Zm18.86,160.44h-14v-93.8h14Zm39-10.63c8,0,12.74-4.33,15.59-8.76l11,7.32c-4.93,6.6-13.2,14-26.66,14-16.13,0-31.23-11.89-31.23-31.93,0-18.94,13.55-31.78,29.68-31.78h0c12.73,0,22.34,8.49,26.46,18.65l2.22,5.19-42.67,17.71C609.43,194,613.54,198.91,622.49,198.91ZM651.92,84.35h-8.51L625.19,54h-.48l.48,8.27V84.35h-8V41.44h9.41l17.26,28.77h.48l-.48-8.27V41.44h8Zm19.45-.78a21.68,21.68,0,0,1-11.81-11.9,23.44,23.44,0,0,1,0-17.56,21.68,21.68,0,0,1,11.81-11.9,23.66,23.66,0,0,1,17.8,0A21.68,21.68,0,0,1,701,54.11a23.44,23.44,0,0,1,0,17.56,21.68,21.68,0,0,1-11.81,11.9,23.66,23.66,0,0,1-17.8,0Zm45.57,91.94H697v34H683v-93.8h33.9a29.88,29.88,0,1,1,0,59.76Zm54.44,34h-14v-93.8h14Zm71.38-33.73v33.73h-14V202a24.12,24.12,0,0,1-12.18,8.18c-8.89,2.42-19.72,1.47-26.31-5.63-4.23-4.55-5.58-12-4.79-18.08,1.47-11.22,10.7-18.06,21.48-19.16,6.91-.7,14.47.65,21.47,2.5-1.53-15.29-24.82-18.57-33-4.31l-11.28-7.57C800.84,132.83,844.95,141,842.75,175.81Zm32.1,64.26H859.55l14.56-33.14-26-59.21H863.4l18.36,41.79,18.36-41.79h15.31Z"/><path class="cls-1" d="M716.94,129.76H697v31.73h19.89a15.86,15.86,0,1,0,0-31.73Z"/></svg>
