<svg id="Layer_1" data-name="Layer 1" xmlns="http://www.w3.org/2000/svg" viewBox="0 0 970.06 287.33"><defs><style>.cls-1,.cls-2{fill:#7d7c7d;}.cls-1{fill-rule:evenodd;}</style></defs><title>gplay-badge</title><path class="cls-1" d="M39.27,0H930.79a39.38,39.38,0,0,1,39.27,39.27v208.8a39.38,39.38,0,0,1-39.27,39.27H39.27A39.38,39.38,0,0,1,0,248.07V39.27A39.38,39.38,0,0,1,39.27,0Zm0,13A26.36,26.36,0,0,0,13,39.27v208.8a26.36,26.36,0,0,0,26.28,26.28H930.79a26.36,26.36,0,0,0,26.28-26.28V39.27A26.36,26.36,0,0,0,930.79,13Z"/><path class="cls-1" d="M350.41,157.53H305V171h32.21c-1.59,18.9-17.31,27-32.16,27a35.42,35.42,0,0,1-35.56-35.88c0-20.4,15.79-36.11,35.6-36.11a35,35,0,0,1,24.28,9.74l9.44-9.77s-12.11-13.48-34.2-13.48c-28.13,0-49.89,23.74-49.89,49.38a50.16,50.16,0,0,0,50.61,49.63c26.51,0,45.91-18.16,45.91-45a40.42,40.42,0,0,0-.82-8.94Z"/><path class="cls-1" d="M389.21,160.26c9.16,0,17.85,7.41,17.85,19.35,0,11.68-8.65,19.31-17.89,19.31-10.16,0-18.17-8.13-18.17-19.4,0-11,7.91-19.25,18.21-19.25Zm-.18-12.5a31.44,31.44,0,0,0-32,31.56c0,17.24,13,32.08,32.21,32.08,17.43,0,31.71-13.32,31.71-31.71,0-21.08-16.61-31.93-31.93-31.93Z"/><path class="cls-1" d="M459.54,160.26c9.16,0,17.85,7.41,17.85,19.35,0,11.68-8.65,19.31-17.89,19.31-10.16,0-18.17-8.13-18.17-19.4,0-11,7.91-19.25,18.21-19.25Zm-.19-12.5a31.44,31.44,0,0,0-32,31.56c0,17.24,13,32.08,32.21,32.08,17.43,0,31.71-13.32,31.71-31.71,0-21.08-16.61-31.93-31.93-31.93Z"/><path class="cls-1" d="M529.48,160.27c8.39,0,17,7.16,17,19.39,0,12.43-8.59,19.28-17.18,19.28-9.12,0-17.6-7.4-17.6-19.16,0-12.22,8.81-19.51,17.79-19.51Zm-1.24-12.47c-17.1,0-30.55,15-30.55,31.8,0,19.15,15.59,31.86,30.26,31.86,9.07,0,13.89-3.6,17.45-7.73V210c0,11-6.67,17.55-16.73,17.55-9.72,0-14.6-7.23-16.29-11.33l-12.23,5.11c4.34,9.17,13.07,18.74,28.62,18.74,17,0,30-10.71,30-33.18V149.71H545.4v5.39a22.51,22.51,0,0,0-17.16-7.3Z"/><path class="cls-1" d="M621.43,160c5.81,0,10,3.09,11.78,6.8l-28.5,11.91c-1.23-9.22,7.51-18.71,16.72-18.71Zm-.56-12.24c-16.13,0-29.68,12.84-29.68,31.78,0,20,15.1,31.93,31.23,31.93,13.46,0,21.73-7.37,26.66-14l-11-7.32c-2.86,4.43-7.63,8.76-15.59,8.76-8.95,0-13.06-4.9-15.61-9.64l42.67-17.71-2.22-5.19c-4.12-10.16-13.74-18.65-26.46-18.65Z"/><rect class="cls-2" x="569.44" y="115.75" width="14.02" height="93.8"/><rect class="cls-2" x="757.36" y="115.75" width="14.02" height="93.8"/><rect class="cls-2" x="683.03" y="115.75" width="14.02" height="93.8"/><path class="cls-1" d="M683,115.75h33.9a30,30,0,0,1,29.88,29.88h0a30,30,0,0,1-29.88,29.88H683V115.75Zm14,14v31.73h19.89a15.86,15.86,0,1,0,0-31.73Z"/><polygon class="cls-1" points="874.86 240.07 915.44 147.72 900.13 147.72 859.55 240.07 874.86 240.07"/><polygon class="cls-1" points="879.39 218.94 848.1 147.72 863.4 147.72 884.99 196.84 879.39 196.84 879.39 218.94"/><path class="cls-1" d="M828.74,209.55h14V175.81c2.19-34.79-41.92-43-58.61-17.89l11.28,7.57c8.16-14.27,31.45-11,33,4.31-7-1.85-14.56-3.2-21.47-2.5-10.78,1.09-20,7.94-21.48,19.16-.79,6.06.56,13.53,4.79,18.08,6.59,7.09,17.42,8,26.31,5.63A24.12,24.12,0,0,0,828.74,202v7.57Zm0-27.11c-1.79,7.8-7.84,13.41-15.51,15.5C797,202.35,793,176,817.07,179.64A60.12,60.12,0,0,1,828.74,182.43Z"/><path class="cls-1" d="M89.68,236a14.94,14.94,0,0,0,1.91-.88l87.65-48-20.78-20.75L89.68,236Zm93.44-51-21.68-21.65,21.66-21.92,29.82,16.27c7.35,4,3.59,9,0,11L183.12,185Zm-3.9-45.68L91.59,91.51a8.83,8.83,0,0,0-3.06-1l69.91,69.81,20.78-21ZM83.39,91.41l72.07,72L83.74,236c-2.09-1.33-3.22-4.21-3.23-7.93,0-7.13-.61-120.34-.65-128.83C79.83,95.12,81.32,92.63,83.39,91.41Z"/><path class="cls-2" d="M259,41.44h14.5A25.52,25.52,0,0,1,282.71,43a19.8,19.8,0,0,1,7,4.41,19.14,19.14,0,0,1,4.41,6.8,25.64,25.64,0,0,1,0,17.44,18.84,18.84,0,0,1-4.41,6.77,20,20,0,0,1-7,4.38,25.5,25.5,0,0,1-9.17,1.56H259Zm14.15,35.24a18.06,18.06,0,0,0,6.23-1,12.17,12.17,0,0,0,4.5-2.79,11.41,11.41,0,0,0,2.7-4.35,18.28,18.28,0,0,0,0-11.33,11.42,11.42,0,0,0-2.7-4.34,12.17,12.17,0,0,0-4.5-2.79,18.06,18.06,0,0,0-6.23-1h-6.05V76.68Z"/><path class="cls-2" d="M302.13,41.44h8.09V84.35h-8.09Z"/><path class="cls-2" d="M332,85.31a17.77,17.77,0,0,1-5.27-.78,15.2,15.2,0,0,1-4.62-2.34,16.17,16.17,0,0,1-3.66-3.81A18.42,18.42,0,0,1,316,73.14l7.61-3a11.61,11.61,0,0,0,2.94,5.36A7.4,7.4,0,0,0,332,77.64a8.86,8.86,0,0,0,2.43-.33,7.17,7.17,0,0,0,2.1-1A4.64,4.64,0,0,0,338,74.76a4.44,4.44,0,0,0,.54-2.22,5.34,5.34,0,0,0-.42-2.16,5.07,5.07,0,0,0-1.41-1.8A12.57,12.57,0,0,0,334.17,67a39.25,39.25,0,0,0-3.93-1.62l-2.64-1a20.22,20.22,0,0,1-3.51-1.62,15.38,15.38,0,0,1-3.21-2.46,12.11,12.11,0,0,1-2.37-3.39,10.11,10.11,0,0,1-.93-4.41,11.3,11.3,0,0,1,1-4.71A11.5,11.5,0,0,1,321.4,44a13.2,13.2,0,0,1,4.38-2.58A18.11,18.11,0,0,1,337,41.35a13.78,13.78,0,0,1,4,2.22,12.34,12.34,0,0,1,2.67,3,14.36,14.36,0,0,1,1.5,3.06l-7.13,3a7.61,7.61,0,0,0-2.19-3.24,6.24,6.24,0,0,0-4.35-1.44,7.4,7.4,0,0,0-4.38,1.23,3.76,3.76,0,0,0-1.74,3.21,4.06,4.06,0,0,0,1.68,3.27,18.27,18.27,0,0,0,5.33,2.61l2.7.9a31,31,0,0,1,4.71,2.07A14.74,14.74,0,0,1,343.52,64a11.32,11.32,0,0,1,2.34,3.69,13,13,0,0,1,.81,4.76,11.74,11.74,0,0,1-1.35,5.78,12.37,12.37,0,0,1-3.45,4,14.94,14.94,0,0,1-4.73,2.34A18.18,18.18,0,0,1,332,85.31Z"/><path class="cls-2" d="M353.32,84.35V41.44h15.1a16.31,16.31,0,0,1,5.72,1,14.12,14.12,0,0,1,4.65,2.79,13.29,13.29,0,0,1,0,19.6,14.12,14.12,0,0,1-4.65,2.79,16.31,16.31,0,0,1-5.72,1h-7V84.35Zm15.22-23.44a6.12,6.12,0,0,0,4.79-1.8A6,6,0,0,0,375,55a6.5,6.5,0,0,0-.39-2.22,5.07,5.07,0,0,0-1.2-1.89,5.89,5.89,0,0,0-2-1.29,7.57,7.57,0,0,0-2.82-.48h-7.13V60.92Z"/><path class="cls-2" d="M408.52,85.31a22.6,22.6,0,0,1-8.9-1.74,21.69,21.69,0,0,1-11.81-11.9,23.42,23.42,0,0,1,0-17.56,21.69,21.69,0,0,1,11.81-11.9,23.66,23.66,0,0,1,17.8,0,21.69,21.69,0,0,1,11.81,11.9,23.42,23.42,0,0,1,0,17.56,21.69,21.69,0,0,1-11.81,11.9A22.61,22.61,0,0,1,408.52,85.31Zm0-7.67a14.5,14.5,0,0,0,5.6-1.08,14.1,14.1,0,0,0,4.56-3,13.65,13.65,0,0,0,3.06-4.64,16.92,16.92,0,0,0,0-12,13.67,13.67,0,0,0-3.06-4.64,14.1,14.1,0,0,0-4.56-3,15.09,15.09,0,0,0-11.21,0,14.09,14.09,0,0,0-4.56,3,13.64,13.64,0,0,0-3.06,4.64,16.92,16.92,0,0,0,0,12,13.62,13.62,0,0,0,3.06,4.64,14.09,14.09,0,0,0,4.56,3A14.5,14.5,0,0,0,408.52,77.64Z"/><path class="cls-2" d="M437.47,41.44h9.41l17.26,28.77h.48l-.48-8.27V41.44h8V84.35h-8.51L445.44,54H445l.48,8.27V84.35h-8Z"/><path class="cls-2" d="M480.8,41.44h8.09V84.35H480.8Zm.48-3.36,2.52-8.15H493l-5.39,8.15Z"/><path class="cls-2" d="M493,41.44h8.75l8.87,25.83,1.56,5.51h.48l1.68-5.51,9.23-25.83h8.75L516.71,84.35h-8.51Z"/><path class="cls-2" d="M545.48,49.11v9.95h17.2v7.67h-17.2v10H564.6v7.67H537.38V41.44H564.6v7.67Z"/><path class="cls-2" d="M572,41.44h8.09V76.68h18.16v7.67H572Z"/><path class="cls-2" d="M617.22,41.44h9.41l17.26,28.77h.48l-.48-8.27V41.44h8V84.35h-8.51L625.19,54h-.48l.48,8.27V84.35h-8Z"/><path class="cls-2" d="M680.27,85.31a22.6,22.6,0,0,1-8.9-1.74,21.68,21.68,0,0,1-11.81-11.9,23.44,23.44,0,0,1,0-17.56,21.68,21.68,0,0,1,11.81-11.9,23.66,23.66,0,0,1,17.8,0A21.68,21.68,0,0,1,701,54.11a23.44,23.44,0,0,1,0,17.56,21.68,21.68,0,0,1-11.81,11.9A22.6,22.6,0,0,1,680.27,85.31Zm0-7.67a14.5,14.5,0,0,0,5.6-1.08,14.1,14.1,0,0,0,4.56-3,13.66,13.66,0,0,0,3.06-4.64,16.94,16.94,0,0,0,0-12,13.68,13.68,0,0,0-3.06-4.64,14.1,14.1,0,0,0-4.56-3,15.09,15.09,0,0,0-11.21,0,14.1,14.1,0,0,0-4.56,3,13.65,13.65,0,0,0-3.06,4.64,16.94,16.94,0,0,0,0,12,13.64,13.64,0,0,0,3.06,4.64,14.1,14.1,0,0,0,4.56,3A14.5,14.5,0,0,0,680.27,77.64Z"/></svg>