<svg id="Camada_1" data-name="Camada 1" xmlns="http://www.w3.org/2000/svg" viewBox="0 0 80 80"><title>vagalumeFM</title><path fill="#CF0" d="M24.06,55.71a3.21,3.21,0,0,0,6.41,0v-.14A33.34,33.34,0,0,1,24,53.14v2.57Zm19.26-.17v4.95a3.21,3.21,0,1,0,6.41,0V51.12a13.81,13.81,0,0,1-6.41,4.42Zm6.42-22.73V20.39a3.21,3.21,0,0,0-3.21-3.21,5.83,5.83,0,0,0-2.88,1.42c1.16,1.79-.32,4.47-.32,4.47v2.86a31.6,31.6,0,0,1,6.41,6.88Zm6.42-10A3.21,3.21,0,0,0,53,26V54.87a3.21,3.21,0,0,0,6.41,0V26A3.21,3.21,0,0,0,56.16,22.78Zm9.63,8A3.21,3.21,0,0,0,62.59,34V46.85a3.21,3.21,0,1,0,6.41,0V34a3.21,3.21,0,0,0-3.21-3.22ZM14.42,46.09v.76a3.21,3.21,0,0,0,3.21,3.21,3.27,3.27,0,0,0,1.09-.19A31.94,31.94,0,0,1,14.42,46.09ZM46,40c-1.91.18-3.83-3.48-4.29-8.16a17.86,17.86,0,0,1,.08-4.55,27.66,27.66,0,0,0-4.15-2.45,15.29,15.29,0,0,1,1.11-3.93c1.36-3.46,3.3-1.17,3.92.89.62-1.85-.51-4-2.77-3.73s-3.46,6-3.46,6h0c0-.07-.56-.13-.73-.2-.39-.15-.93-.3-1.36-.44h-.06a11.42,11.42,0,0,0-4.77-5.8C26.64,16,22,15.55,17.15,18c0,0,11.53-3,15,4.91h0c-4.76-1.25-10.49-1.58-14.61.35a11.63,11.63,0,0,0-5.64,15.12c3.81,9.06,15.82,16,25.51,15.77,10.64-.22,15.79-9.56,11.11-19C48.25,38,47.28,39.92,45.95,40ZM25.39,25.41c2-2,6.95-.24,11.16,3.91s6,9.11,4.1,11.1-6.95.24-11.16-3.91S23.44,27.4,25.39,25.41Zm13.4,25.2c-2.78.25-10.14-.89-9.61-3.21.38-1.62,2.54-.3,5.35.81a32.2,32.2,0,0,0,5.6,1.38c2.36.43,1.44.76-1.35,1Zm6.86-19.74h0c-.82.06-1.36,1.56-1.21,3.36s.92,3.22,1.74,3.17,1.36-1.56,1.21-3.36a7.26,7.26,0,0,0-.2-1.2,22.82,22.82,0,0,0-1.53-2Zm-8.18,2.31c1.58,1.63,2.17,3.62,1.32,4.45s-2.83.18-4.41-1.45-2.17-3.62-1.32-4.45S35.89,31.55,37.47,33.18Z"/></svg>
