<svg id="Camada_1" data-name="Camada 1" xmlns="http://www.w3.org/2000/svg" viewBox="0 0 80 80"><title>estacao</title><path fill="#CF0" d="M20.25,20.26A3,3,0,1,0,15.95,16a34,34,0,0,0,0,48.09,3,3,0,0,0,4.32-4.31,27.94,27.94,0,0,1,0-39.48h0ZM64,15.95a3,3,0,0,0-4.31,4.31,27.91,27.91,0,0,1,0,39.47A3,3,0,1,0,64,64a34,34,0,0,0,0-48.08h0ZM24.15,55.83a3.05,3.05,0,0,0,2.16.9,3,3,0,0,0,2.16-.9,3,3,0,0,0,0-4.31,16.33,16.33,0,0,1,0-23.05,3.05,3.05,0,0,0-4.32-4.32,22.42,22.42,0,0,0,0,31.68h0Zm27.36,0a3.05,3.05,0,0,0,2.16.9,3,3,0,0,0,2.16-.9,22.38,22.38,0,0,0,0-31.67,3,3,0,0,0-4.31,4.31,16.31,16.31,0,0,1,0,23.06,3,3,0,0,0,0,4.31h0ZM40,47.74A7.74,7.74,0,1,0,32.25,40,7.74,7.74,0,0,0,40,47.74Z"/></svg>
