<svg id="Camada_1" data-name="Camada 1" xmlns="http://www.w3.org/2000/svg" viewBox="0 0 27.49 34.88"><title>twitter</title><path fill="#FFF" d="M24.62,11.73a8.31,8.31,0,0,0,1.6-1.31,13.89,13.89,0,0,0,1.26-1.56,10.13,10.13,0,0,1-1.56.55,10.42,10.42,0,0,1-1.73.3,5.57,5.57,0,0,0,2.53-3.12A10.38,10.38,0,0,1,23.1,8a5.22,5.22,0,0,0-4-1.77,5.53,5.53,0,0,0-4,1.6,5.31,5.31,0,0,0-1.64,4,7.59,7.59,0,0,0,.08,1.35A14.9,14.9,0,0,1,7,11.4,17.16,17.16,0,0,1,1.94,7.26,5.48,5.48,0,0,0,1.1,10a5.56,5.56,0,0,0,.67,2.74,5.44,5.44,0,0,0,1.86,2,5,5,0,0,1-2.53-.67v.08A5.26,5.26,0,0,0,2.4,17.72a5.8,5.8,0,0,0,3.25,1.94,2.06,2.06,0,0,1-.76.17H3.58A1.71,1.71,0,0,1,3,19.74a5.86,5.86,0,0,0,2,2.78,5.7,5.7,0,0,0,3.29,1.18,11.08,11.08,0,0,1-7,2.36A7.59,7.59,0,0,1,0,26a16.5,16.5,0,0,0,4,1.86,15.36,15.36,0,0,0,4.55.67,15.72,15.72,0,0,0,6.87-1.43,15.85,15.85,0,0,0,5.06-3.75,16.09,16.09,0,0,0,3.12-5.19,16.3,16.3,0,0,0,1.05-5.65A2.59,2.59,0,0,0,24.62,11.73Z"/></svg>
