<svg id="Camada_1" data-name="Camada 1" xmlns="http://www.w3.org/2000/svg" viewBox="0 0 22.34 34.88"><title>whatsapp</title><path fill="#FFF" d="M10.63,6.06A11.18,11.18,0,0,0,1.22,22.3L0,28.06a.43.43,0,0,0,.53.51L6.2,27.23A11.18,11.18,0,1,0,10.63,6.06Zm6.73,17.35A8.76,8.76,0,0,1,7.28,25.06l-.79-.39L3,25.49,3.76,22l-.39-.76A8.76,8.76,0,0,1,5,11,8.75,8.75,0,1,1,17.36,23.41Z"/><path fill="#FFF" d="M16.6,19.65,14.43,19a.81.81,0,0,0-.8.21l-.53.54a.79.79,0,0,1-.86.18,11.56,11.56,0,0,1-3.73-3.29.79.79,0,0,1,.06-.87l.46-.6a.81.81,0,0,0,.1-.82l-.91-2.06A.81.81,0,0,0,7,12a3.64,3.64,0,0,0-1.41,2.15c-.15,1.52.5,3.43,3,5.72,2.84,2.65,5.12,3,6.6,2.64a3.64,3.64,0,0,0,1.94-1.69A.81.81,0,0,0,16.6,19.65Z"/></svg>
