<?xml version="1.0" encoding="utf-8"?>
<!-- Generator: Adobe Illustrator 21.0.2, SVG Export Plug-In . SVG Version: 6.00 Build 0)  -->
<svg version="1.1" id="Camada_1" xmlns="http://www.w3.org/2000/svg" xmlns:xlink="http://www.w3.org/1999/xlink" x="0px" y="0px"
	 viewBox="0 0 63.6 63.6" enable-background="new 0 0 63.6 63.6" xml:space="preserve">
<g>
	<path fill="#FFF" d="M63.6,4.9c0-2.8-2.2-4.9-4.9-4.9C45.7,0,32.7,0,19.8,0c-3.1,0-5.2,2.1-5.2,5.2c0,2.8,0,5.6,0,8.4c0,1,0,1-0.9,1
		c-2.9,0-5.8,0-8.6,0c-2.9,0-5,2.2-5,5c0,6.5,0,13,0,19.4c0,6.5,0,13,0,19.4c0,0.4,0,0.7,0.1,1.1c0.5,2.4,2.4,4,4.9,4
		c12.9,0,25.8,0,38.7,0c3.2,0,5.3-2.1,5.3-5.3c0-2.8,0-5.6,0-8.4c0-0.6,0.2-0.9,0.8-0.9c2.9,0,5.8,0,8.7,0c2.9,0,5.1-2.2,5.1-5
		C63.6,30.9,63.6,17.9,63.6,4.9z M42.6,58.5c-6.1,0-12.1,0-18.2,0c0,0,0,0,0,0c-6.1,0-12.3,0-18.4,0c-0.9,0-0.9,0-0.9-1
		c0-12.2,0-24.5,0-36.7c0-1.1,0-1.1,1.1-1.1c2.5,0,5,0,7.5,0c0.7,0,0.9,0.2,0.9,0.9c0,7.7,0,15.3,0,23c0,3.3,2.1,5.4,5.4,5.4
		c7.6,0,15.2,0,22.9,0c1,0,1,0,1,1.1c0,2.4,0,4.8,0,7.1C43.9,58.6,44,58.5,42.6,58.5z M58.5,24.6C58.5,24.6,58.5,24.6,58.5,24.6
		c0,6.1,0,12.1,0,18.2c0,1.1-1.1,1.1-1.1,1.1l-36.9,0c0,0-0.8-0.2-0.8-0.8c0-12.4,0-24.8,0-37.2c0-0.7,0.2-0.9,0.9-0.9
		c12.4,0,24.7,0,37.1,0c0.7,0,0.9,0.2,0.9,0.9C58.5,12.1,58.5,18.3,58.5,24.6z"/>
	<path fill="#FFF" d="M48.2,14.6c-4.8,0-9.5,0-14.3,0c-1.6,0-2.7,1-2.7,2.5c0,1.5,1.1,2.5,2.7,2.5c2.5,0,5,0,7.4,0c0.2,0,0.5-0.1,0.9,0.1
		c-0.3,0.2-0.5,0.4-0.7,0.6c-4.7,4.7-9.4,9.4-14,14c-0.2,0.2-0.4,0.4-0.6,0.7c-1.1,1.4-0.4,3.5,1.3,3.9c1.1,0.3,1.9,0,2.7-0.8
		c4.8-4.8,9.5-9.5,14.3-14.3c0.2-0.2,0.3-0.4,0.6-0.5c0.2,0.2,0.1,0.5,0.1,0.8c0,2.5,0,4.9,0,7.4c0,1.6,1,2.7,2.5,2.7
		c1.5,0,2.5-1.1,2.5-2.7c0-4.8,0-9.5,0-14.3C50.8,15.7,49.8,14.6,48.2,14.6z"/>
</g>
</svg>
