<?xml version="1.0" encoding="utf-8"?>
<!-- Generator: Adobe Illustrator 21.0.2, SVG Export Plug-In . SVG Version: 6.00 Build 0)  -->
<svg version="1.1" id="Camada_1" xmlns="http://www.w3.org/2000/svg" xmlns:xlink="http://www.w3.org/1999/xlink" x="0px" y="0px"
	 viewBox="0 0 200 200" enable-background="new 0 0 200 200" xml:space="preserve">
<g>
	<g>
		
			<linearGradient id="SVGID_1_" gradientUnits="userSpaceOnUse" x1="0" y1="102" x2="200" y2="102" gradientTransform="matrix(1 0 0 -1 0 202)">
			<stop  offset="0" style="stop-color:#B3FF00"/>
			<stop  offset="1" style="stop-color:#00ABCE"/>
		</linearGradient>
		<path fill="url(#SVGID_1_)" d="M100,200C44.9,200,0,155.1,0,100c0-16.7,4.2-33.2,12.1-47.7c0.8-1.4,2.6-2,4.1-1.2
			c1.4,0.8,2,2.6,1.2,4.1C10,68.8,6,84.3,6,100c0,51.8,42.2,94,94,94s94-42.2,94-94S151.8,6,100,6c-1.6,0-3-1.3-3-3s1.3-3,3-3
			c55.1,0,100,44.8,100,100S155.1,200,100,200z"/>
	</g>
	<circle fill="#B3FF00" cx="15.7" cy="51" r="7.4"/>
</g>
</svg>
