<?xml version="1.0" encoding="utf-8"?>
<!-- Generator: Adobe Illustrator 22.0.0, SVG Export Plug-In . SVG Version: 6.00 Build 0)  -->
<svg version="1.1" id="Camada_1" xmlns="http://www.w3.org/2000/svg" xmlns:xlink="http://www.w3.org/1999/xlink" x="0px" y="0px"
	 viewBox="0 0 709 226" enable-background="new 0 0 709 226" xml:space="preserve">
<g>
	<g>
		<g>
			<g>
				<path fill="#FFFFFF" d="M514.1,208.2c3.2,0,5.8-2.6,5.8-5.8V152c0-3.2-2.6-5.8-5.8-5.8c-3.2,0-5.8,2.6-5.8,5.8v50.4
					C508.3,205.6,510.9,208.2,514.1,208.2L514.1,208.2z M514.1,208.2"/>
				<path fill="#FFFFFF" d="M531.4,192.3c3.2,0,5.8-2.6,5.8-5.8v-23c0-3.2-2.6-5.8-5.8-5.8c-3.2,0-5.8,2.6-5.8,5.8v23
					C525.6,189.7,528.2,192.3,531.4,192.3L531.4,192.3z M531.4,192.3"/>
				<path fill="#FFFFFF" d="M548.6,216.8c3.2,0,5.8-2.6,5.8-5.8v-71.9c0-3.2-2.6-5.8-5.8-5.8c-3.2,0-5.8,2.6-5.8,5.8V211
					C542.9,214.2,545.5,216.8,548.6,216.8L548.6,216.8z M548.6,216.8"/>
				<path fill="#FFFFFF" d="M565.9,206.7c3.2,0,5.8-2.6,5.8-5.8v-51.8c0-3.2-2.6-5.8-5.8-5.8c-3.2,0-5.8,2.6-5.8,5.8V201
					C560.2,204.1,562.7,206.7,565.9,206.7L565.9,206.7z M565.9,206.7"/>
				<path fill="#FFFFFF" d="M583.2,192.3c3.2,0,5.8-2.6,5.8-5.8v-23c0-3.2-2.6-5.8-5.8-5.8c-3.2,0-5.8,2.6-5.8,5.8v23
					C577.4,189.7,580,192.3,583.2,192.3L583.2,192.3z M583.2,192.3"/>
				<path fill="#FFFFFF" d="M496.8,192.3c3.2,0,5.8-2.6,5.8-5.8v-23c0-3.2-2.6-5.8-5.8-5.8s-5.8,2.6-5.8,5.8v23
					C491.1,189.7,493.7,192.3,496.8,192.3L496.8,192.3z M496.8,192.3"/>
			</g>
		</g>
		<g>
			<path fill="#FFFFFF" d="M639.8,144.2c0.6,0,1.1,0.2,1.6,0.7c0.4,0.4,0.7,1,0.7,1.6v5.8c0,0.6-0.2,1.1-0.7,1.6
				c-0.4,0.4-1,0.7-1.6,0.7h-26.1v15.9h24.5c0.6,0,1.1,0.2,1.6,0.7c0.4,0.4,0.7,1,0.7,1.6v5.8c0,0.6-0.2,1.1-0.7,1.6
				c-0.4,0.4-1,0.7-1.6,0.7h-24.5v18.7c0,0.6-0.2,1.1-0.7,1.6c-0.4,0.4-1,0.7-1.6,0.7h-6.6c-0.6,0-1.1-0.2-1.6-0.7
				c-0.4-0.4-0.7-1-0.7-1.6v-52.9c0-0.6,0.2-1.1,0.7-1.6c0.4-0.4,1-0.7,1.6-0.7H639.8z"/>
			<path fill="#FFFFFF" d="M671.7,173.4l15.6-27c0.2-0.3,0.6-0.7,1.1-1.3c0.5-0.6,1.3-0.9,2.4-0.9h5.6c0.6,0,1.1,0.2,1.6,0.7
				c0.4,0.4,0.7,1,0.7,1.6v52.9c0,0.6-0.2,1.1-0.7,1.6c-0.4,0.4-1,0.7-1.6,0.7h-6.6c-0.6,0-1.1-0.2-1.6-0.7c-0.4-0.4-0.7-1-0.7-1.6
				v-32l-10.6,18.4c-0.3,0.4-0.7,0.9-1.1,1.4c-0.5,0.5-1.1,0.7-1.9,0.7h-4.3c-0.8,0-1.4-0.2-1.9-0.7c-0.5-0.5-0.9-0.9-1.1-1.4
				l-10.6-18.4v32c0,0.6-0.2,1.1-0.7,1.6c-0.4,0.4-1,0.7-1.6,0.7h-6.6c-0.6,0-1.1-0.2-1.6-0.7c-0.4-0.4-0.7-1-0.7-1.6v-52.9
				c0-0.6,0.2-1.1,0.7-1.6c0.4-0.4,1-0.7,1.6-0.7h5.6c1.1,0,1.9,0.3,2.4,0.9c0.5,0.6,0.9,1,1.1,1.3L671.7,173.4z"/>
		</g>
	</g>
	<g>
		
			<ellipse transform="matrix(0.7478 -0.6639 0.6639 0.7478 50.3605 245.2924)" opacity="0.2" fill="#FFFFFF" enable-background="new    " cx="348" cy="56.4" rx="6" ry="12.3"/>
		<path opacity="0.3" enable-background="new    " d="M409.5,96.7c-6.7,0.6-13.5-12.2-15.1-28.7c-0.6-5.8-0.5-11.4,0.3-16.1
			c-4.3-3.1-9.2-6.1-14.6-8.6c0.7-4.8,2-9.4,3.9-13.9c4.8-12.2,11.6-4.1,13.8,3.2c2.2-6.5-2.6-14.1-10.5-13.1s-13,21.2-13,21.2
			l-1.7-0.7l-4.4-1.6c0,0-4.1-13.1-16.7-20.4c-10-5.8-26.3-7.6-43.3,1c0,0,40.6-10.7,52.9,17.3c-16.7-4.4-36.9-5.6-51.4,1.2
			c-19.8,9.5-28.6,33-19.8,53.2c13.4,31.8,55.6,56.1,89.7,55.4c37.4-0.8,55.5-33.6,39.1-66.6C417.6,89.4,414.2,96.3,409.5,96.7
			L409.5,96.7z M337.2,45.3c6.9-7,24.5-0.8,39.2,13.7c14.8,14.5,21.3,32,14.4,39c-6.9,7-24.5,0.8-39.2-13.7
			C336.8,69.7,330.3,52.3,337.2,45.3z"/>
		<path fill="#CCFF00" d="M81.3,59.4c0-1-0.4-1.9-1.1-2.6c-0.8-0.8-1.6-1.1-2.6-1.1H67.4c-1.4,0-2.3,0.4-3,1.1
			c-0.6,0.8-1.1,1.4-1.5,2.2l-18,42.1L26.9,59c-0.4-0.8-0.8-1.4-1.5-2.2c-0.6-0.8-1.7-1.1-3-1.1H12.2c-1,0-1.9,0.4-2.6,1.1
			c-0.8,0.8-1.1,1.6-1.1,2.6l0.2,1l27.3,62.6c0.4,0.8,0.9,1.6,1.5,2.3c0.6,0.8,1.7,1.1,3,1.1h8.9c1.4,0,2.3-0.4,3-1.1
			c0.6-0.8,1.1-1.5,1.5-2.3l27.3-62.6C81.2,60.1,81.3,59.8,81.3,59.4z M132,61.6c-2.8-2.4-6.1-4.2-9.5-5.4c-4-1.3-8.3-1.9-12.5-1.8
			c-4.6,0-8.6,0.6-12.1,1.8c-3.2,1.1-6.1,2.6-8.8,4.7c-4,3-6.8,7.3-8,12.3c-0.2,0.9,0.1,1.7,0.7,2.2c0.6,0.5,1.4,0.8,2.3,0.8h12.5
			c0.8,0,1.6-0.2,2.3-0.4c0.7-0.3,1.4-0.8,2.3-1.5c1.2-1.1,2.4-2,3.6-2.6c1.3-0.6,3-1,5.3-1c3.6,0,6.7,0.8,9.1,2.3
			c2.4,1.5,3.6,4.2,3.6,7.9l-22.1,3.8C94.1,85.5,88,88,82.7,91.9c-4.5,3.5-7,9-6.7,14.7c-0.2,5.8,2.2,11.4,6.5,15.2
			c2,1.9,4.7,3.4,7.7,4.4c3.1,1.1,6.6,1.6,10.5,1.6c5.5,0,10.1-0.9,13.6-2.8c3.6-1.8,6.3-4.1,8.2-6.7v4.5c0,1,0.4,1.9,1.1,2.6
			c0.8,0.8,1.6,1.1,2.6,1.1h10.3c1,0,1.9-0.4,2.6-1.1c0.8-0.8,1.1-1.6,1.1-2.6v-40c0.1-4.2-0.7-8.4-2.2-12.3
			C136.8,67,134.7,64,132,61.6z M122.7,96.2c0,1.9-0.4,3.8-1.2,5.5c-1.9,4-5.4,7.1-9.7,8.4c-2.6,0.9-5.4,1.3-8.2,1.3
			c-2.7,0-4.9-0.5-6.8-1.4c-2-0.9-3-2.3-3-4.2c0-2,0.8-3.7,2.4-4.9c1.7-1.2,4.3-2.1,8-2.8l18.5-3.3L122.7,96.2L122.7,96.2z
			 M209.8,55.8h-10.4c-1,0-1.9,0.4-2.6,1.1c-0.8,0.8-1.1,1.6-1.1,2.6v3.1c-2-2.2-4.5-4-7.1-5.3c-8.1-3.6-17.4-3.7-25.6-0.2
			c-3.6,1.7-6.8,4.1-9.4,7c-5.4,6.2-8.4,14-8.6,22.2c-0.2,3.2-0.2,6.4,0,9.5c0.3,8.2,3.3,16,8.6,22.2c5.5,6.3,13.3,9.8,21.7,9.7
			c4.6,0,9.2-1,13.3-2.9c2.7-1.3,5.1-3.1,7.1-5.3v5c0.2,4.6-2,8.9-5.6,11.7c-6.2,4-13.9,4.8-20.8,2.2c-1.9-0.9-3.5-2.2-4.8-3.8
			c-0.6-0.8-1.4-1.5-2.3-2.3c-0.9-0.8-2-1.3-3.3-1.3h-9.2c-1,0-1.9,0.4-2.7,1.1c-0.8,0.8-1.1,1.6-1,2.6c0.2,2.7,1.1,5.4,2.9,8
			c1.7,2.6,4,4.9,6.9,6.9c2.9,2,6.3,3.6,10.2,4.9c4.2,1.2,8.5,1.9,12.8,1.8c10.8,0,19.2-2.8,25.3-8.3c6.1-5.5,9.2-13.9,9.2-24.8
			V59.5c0-1-0.4-1.9-1.1-2.6C211.6,56.1,210.8,55.8,209.8,55.8L209.8,55.8z M195.8,96.2c-0.2,4.3-2,8.3-5.2,11.3
			c-3,2.7-6.7,3.9-11.2,3.9s-8.2-1.3-11.3-3.9c-3.1-2.6-4.9-6.8-5.5-12.7c-0.3-2.5-0.3-5.1,0-7.6c0.5-5.9,2.3-10.1,5.5-12.7
			c3.1-2.6,6.8-3.9,11.3-3.9s8.2,1.4,11.2,4.1c3,2.7,4.8,6.4,5.2,11.1C196.2,89.3,196.2,92.7,195.8,96.2L195.8,96.2z M273.1,61.6
			c-2.8-2.4-6.1-4.2-9.5-5.4c-4-1.3-8.3-1.9-12.5-1.8c-4.6,0-8.6,0.6-12.1,1.8c-3.2,1.1-6.1,2.6-8.8,4.7c-4,3-6.8,7.3-8,12.3
			c-0.2,0.9,0.1,1.7,0.7,2.2c0.6,0.5,1.4,0.8,2.3,0.8h12.6c0.8,0,1.6-0.2,2.3-0.4c0.7-0.3,1.4-0.8,2.3-1.5c1.2-1.1,2.4-2,3.6-2.6
			c1.3-0.6,3-1,5.3-1c3.6,0,6.7,0.8,9.1,2.3c2.4,1.5,3.6,4.2,3.6,7.9l-22.1,3.8c-6.4,0.8-12.6,3.3-17.8,7.2c-4.5,3.5-7,9-6.7,14.7
			c-0.2,5.8,2.2,11.4,6.5,15.2c2,1.9,4.7,3.4,7.7,4.4c3.1,1.1,6.6,1.6,10.5,1.6c5.5,0,10.1-0.9,13.6-2.8c3.6-1.8,6.3-4.1,8.2-6.7
			v4.5c0,1,0.4,1.9,1.1,2.6c0.8,0.8,1.6,1.1,2.6,1.1h10.3c1,0,1.9-0.4,2.6-1.1c0.8-0.8,1.1-1.6,1.1-2.6v-40
			c0.1-4.2-0.7-8.4-2.2-12.3C278,67,275.9,64,273.1,61.6L273.1,61.6z M263.8,96.2c0,1.9-0.4,3.8-1.2,5.5c-1.9,4-5.4,7.1-9.7,8.4
			c-2.6,0.9-5.4,1.3-8.2,1.3c-2.7,0-4.9-0.5-6.8-1.4c-2-0.9-3-2.3-3-4.2c0-2,0.8-3.7,2.4-4.9c1.7-1.2,4.3-2.1,8-2.8l18.5-3.3
			L263.8,96.2L263.8,96.2L263.8,96.2z M442.6,29.9h-10.3c-1,0-1.9,0.4-2.6,1.1c-0.8,0.8-1.1,1.6-1.1,2.6v89.1c0,1,0.4,1.9,1.1,2.6
			c0.8,0.8,1.6,1.1,2.6,1.1h10.3c1,0,1.9-0.4,2.6-1.1c0.8-0.8,1.1-1.6,1.1-2.6v-89c0-1-0.4-1.9-1.1-2.6
			C444.4,30.3,443.6,29.9,442.6,29.9z M513.6,55.8h-10.3c-1,0-1.9,0.4-2.6,1.1c-0.8,0.8-1.1,1.6-1.1,2.6v34.5c0,5.5-1.3,9.8-3.8,13
			c-2.6,3.3-6.7,5.2-11,4.9c-5.2,0-9-1.7-11.4-4.9c-2.3-3.3-3.5-7.6-3.5-13V59.4c0-1-0.4-1.9-1.1-2.6c-0.8-0.8-1.6-1.1-2.6-1.1
			h-10.3c-1,0-1.9,0.4-2.6,1.1c-0.8,0.8-1.1,1.6-1.1,2.6v36.5c0,4.2,0.5,8.3,1.4,12.1c0.9,3.9,2.4,7.2,4.6,10.1
			c2.2,2.9,5.1,5.2,8.7,6.9c4.3,1.9,9,2.7,13.7,2.6c4.3,0,8-0.8,11.1-2.5s5.7-3.6,7.7-5.6v3.1c0,1,0.4,1.9,1.1,2.6
			c0.8,0.8,1.6,1.1,2.6,1.1h10.3c1,0,1.9-0.4,2.6-1.1c0.8-0.8,1.1-1.6,1.1-2.6V59.4c0-1-0.4-1.9-1.1-2.6
			C515.5,56.1,514.6,55.8,513.6,55.8L513.6,55.8z M623.8,63.9c-2.2-3-5.1-5.3-8.3-6.9c-4-1.9-8.4-2.8-12.9-2.6
			c-6.5,0.2-12.7,2.5-17.7,6.7c-1.7,1.4-3.2,3-4.3,4.9c-2.1-3.5-5-6.3-8.6-8.3c-7.3-3.9-16-4.3-23.6-1.1c-3.1,1.4-5.7,3.5-7.9,6.1
			v-3.1c0-1-0.4-1.9-1.1-2.6c-0.8-0.8-1.6-1.1-2.6-1.1h-10.3c-1,0-1.9,0.4-2.6,1.1c-0.8,0.8-1.1,1.6-1.1,2.6v63.1
			c0,1,0.4,1.9,1.1,2.6c0.8,0.8,1.6,1.1,2.6,1.1h10.3c1,0,1.9-0.4,2.6-1.1c0.8-0.8,1.1-1.6,1.1-2.6V86.8c0-6.1,1.3-10.3,3.9-12.8
			c2.7-2.5,5.8-3.7,9.5-3.7c4.2,0,7.6,1.2,9.9,3.6c2.3,2.4,3.6,6.7,3.6,12.9v35.8c0,1,0.4,1.9,1.1,2.6c0.8,0.8,1.6,1.1,2.6,1.1h10.3
			c1,0,1.9-0.4,2.6-1.1c0.8-0.8,1.1-1.6,1.1-2.6V86.1c0.2-5.9,1.6-10,4.2-12.3c2.6-2.3,5.7-3.6,9.3-3.6c4.2,0,7.6,1.2,9.9,3.6
			c2.3,2.4,3.6,6.7,3.6,12.9v35.9c0,1,0.4,1.9,1.1,2.6c0.8,0.8,1.6,1.1,2.6,1.1h10.3c1,0,1.9-0.4,2.6-1.1c0.8-0.8,1.1-1.6,1.1-2.6
			V86.1c0-4.2-0.5-8.3-1.3-12.1C627.4,70.1,625.9,66.8,623.8,63.9L623.8,63.9z M698,75.6c-4.6-13.1-17.2-21.7-31.1-21.3
			c-14.1,0-26.6,9-31,22.3c-1.5,4.5-2.3,9.2-2.3,14.3c0,5.5,0.8,10.4,2.3,14.8c1.5,4.5,3.8,8.3,6.7,11.6s6.4,5.8,10.5,7.5
			c12.3,4.7,26,3.1,36.9-4.3c2.3-1.6,4.3-3.5,5.9-5.8c1.3-2,2-3.6,2.1-4.9c0.1-1-0.2-1.8-1-2.6c-0.8-0.8-1.7-1.1-2.7-1.1h-10.8
			c-1.1,0-2,0.2-2.6,0.4c-0.6,0.3-1.4,0.8-2.4,1.5c-1.4,1-2.9,1.7-4.5,2.3c-4.2,1.3-8.7,1.3-12.9,0.1c-1.9-0.5-3.6-1.4-5-2.4
			c-3-2.2-4.8-5.8-4.8-9.5h45.4c1,0,1.9-0.4,2.6-1.1c0.8-0.8,1.1-1.6,1.1-2.6v-6.1C700.4,84.2,699.6,79.8,698,75.6L698,75.6z
			 M651.4,83.2c0.4-3.2,1.9-6.1,4.2-8.3c1.3-1.2,2.8-2.2,4.7-3c1.8-0.8,4.1-1.1,6.7-1.1c2.9,0,5.3,0.4,7.1,1.1s3.3,1.7,4.5,3
			c1.1,1.2,2,2.6,2.4,4.1c0.5,1.5,0.8,3,1,4.2H651.4L651.4,83.2z"/>
		
			<linearGradient id="SVGID_1_" gradientUnits="userSpaceOnUse" x1="353.9644" y1="580.324" x2="353.9644" y2="559.2695" gradientTransform="matrix(1 0 0 1 0 -550.7)">
			<stop  offset="0" style="stop-color:#333333"/>
			<stop  offset="1" style="stop-color:#4D4D4D"/>
		</linearGradient>
		<path fill="url(#SVGID_1_)" d="M407.7,92.8c-6.7,0.6-13.4-12.2-15.1-28.6c-0.6-5.8-0.5-11.3,0.3-16c-4.3-3.1-9.2-6-14.5-8.6
			c0.2-2.4,1.1-6.7,3.9-13.8c4.8-12.1,11.6-4.1,13.8,3.1c2.2-6.5-2.6-14.1-10.5-13.1c-7.9,1-13,21.2-13,21.2l-1.7-0.7l-4.3-1.6
			c0,0-4.1-13.1-16.7-20.4c-10-5.8-26.3-7.5-43.2,1c0,0,40.5-10.6,52.9,17.3c-16.7-4.4-36.8-5.6-51.3,1.2
			c-19.8,9.5-28.6,33-19.8,53.1c13.4,31.8,55.5,56,89.5,55.4c37.3-0.8,55.4-33.6,39-66.6C415.8,85.4,412.3,92.3,407.7,92.8
			L407.7,92.8z M335.6,41.4c6.8-7,24.4-0.8,39.2,13.7s21.2,32,14.4,38.9c-6.8,7-24.4,0.8-39.2-13.7
			C335.1,65.8,328.7,48.4,335.6,41.4z"/>
		
			<ellipse transform="matrix(0.7169 -0.6972 0.6972 0.7169 53.913 280.6305)" fill="#2D2D2D" cx="372.5" cy="73.9" rx="7.6" ry="14.5"/>
		<path opacity="0.2" enable-background="new    " d="M331.8,45.6c-6.3,7.5,1.6,24.3,17.5,37.6c15.9,13.3,33.9,17.9,40.1,10.5
			c6.3-7.5-1.6-24.3-17.5-37.6C356,42.8,338.1,38.1,331.8,45.6z"/>
		<path opacity="0.8" fill="#5D5D5D" enable-background="new    " d="M335.3,41.4c-6.8,7-0.4,24.4,14.4,38.9
			c14.8,14.5,32.3,20.7,39.2,13.7c6.8-7,0.4-24.4-14.4-38.9S342.2,34.5,335.3,41.4z"/>
		<path opacity="0.8" fill="#CCFF00" enable-background="new    " d="M335.3,41.4c-6.8,7-0.4,24.4,14.4,38.9
			c14.8,14.5,32.3,20.7,39.2,13.7c6.8-7,0.4-24.4-14.4-38.9S342.2,34.5,335.3,41.4z"/>
		<path opacity="0.7" fill="#CCFF00" enable-background="new    " d="M340.5,45.4c-6.1,6.2-0.4,21.7,12.8,34.6
			c13.2,13,28.8,18.4,34.8,12.2c6.1-6.2,0.4-21.7-12.8-34.6C362.1,44.6,346.5,39.2,340.5,45.4z"/>
		<path fill="#CCFF00" d="M351.8,54.8c-4.5,4.5-0.3,15.9,9.4,25.4c9.7,9.5,21.1,13.5,25.6,8.9c4.5-4.5,0.3-15.9-9.4-25.4
			C367.7,54.3,356.3,50.3,351.8,54.8z"/>
		
			<ellipse transform="matrix(0.7169 -0.6972 0.6972 0.7169 53.8702 280.5249)" fill="#2D2D2D" cx="372.4" cy="73.9" rx="7.6" ry="14.5"/>
		
			<ellipse transform="matrix(0.7169 -0.6972 0.6972 0.7169 53.8702 280.5249)" fill="#333333" cx="372.4" cy="73.9" rx="5.5" ry="10.5"/>
		
			<ellipse transform="matrix(0.7169 -0.6972 0.6972 0.7169 54.4884 279.5183)" fill="#424242" cx="371.4" cy="72.7" rx="3.4" ry="6.4"/>
		<path opacity="0.3" enable-background="new    " d="M381.4,131.5c-9.8,0.9-35.6-3.1-33.7-11.2c1.4-5.7,8.9-1.1,18.8,2.8
			c6.9,2.7,16.3,4.2,19.7,4.8C394.5,129.4,391.2,130.6,381.4,131.5L381.4,131.5z M410.3,66c-1.6-2.4-3.3-4.7-5.3-6.9l-4.2-4.3
			c-2.6-2.5-5.3-4.8-8.3-6.8c-1.9,4.6-2.6,9.7-2.1,14.7c1.7,16.4,8.4,29.2,15.1,28.6c4.6-0.5,8-7.3,9.1-16.9
			C413.5,71.4,412,68.6,410.3,66z"/>
		<path fill="#CCFF00" d="M412.5,67.3c-1.6-2.4-3.3-4.7-5.3-6.9l-4.2-4.3c-3.6-3.5-8.3-7-10.1-8.3v0.1c-0.7,5.3-0.8,10.7-0.3,16
			c1.7,16.4,8.4,29.2,15.1,28.6c4.6-0.5,8-7.3,9.1-16.9C415.6,72.7,414.2,69.9,412.5,67.3z"/>
		<path fill="#2D2D2D" d="M408.9,83.2c2.9-0.2,4.8-5.5,4.2-11.8c-0.2-1.5-0.4-3-0.7-4.2c-1.5-2.4-3.5-5-5.2-6.9H407
			c-2.9,0.2-4.8,5.5-4.2,11.8C403.3,78.5,406.1,83.4,408.9,83.2L408.9,83.2z"/>
		<path fill="#333333" d="M408.6,78.5c1.7-0.2,2.9-3.3,2.6-7.1c-0.1-1.7-0.5-3.3-1.1-4.8c-0.8-1.8-3.1-2.6-4.3-0.5
			c-0.9,1.8-1.2,3.8-0.9,5.8C405.2,75.7,406.9,78.7,408.6,78.5z"/>
		<path fill="#424242" d="M408.3,75.1c1.1-0.1,1.8-2,1.6-4.4c-0.1-1-0.3-2.1-0.7-3c-0.5-1.1-2-1.6-2.7-0.3c-0.5,1.1-0.8,2.3-0.5,3.6
			C406.2,73.2,407.2,75.1,408.3,75.1L408.3,75.1z"/>
		<path fill="#D8D8D8" d="M382.6,129.9c-9.8,0.9-35.6-3.1-33.7-11.2c1.4-5.7,8.9-1.1,18.8,2.8c6.9,2.7,16.3,4.2,19.7,4.8
			C395.6,127.8,392.4,129,382.6,129.9L382.6,129.9z"/>
		
			<linearGradient id="SVGID_2_" gradientUnits="userSpaceOnUse" x1="353.6476" y1="586.3828" x2="353.6476" y2="553.665" gradientTransform="matrix(1 0 0 1 0 -550.7)">
			<stop  offset="0" style="stop-color:#1E1E1E"/>
			<stop  offset="1" style="stop-color:#4D4D4D"/>
		</linearGradient>
		<path fill="url(#SVGID_2_)" d="M407.9,93.2c-6.7,0.6-13.6-12.3-15.1-28.9c-0.6-5.4-0.5-10.8,0.3-16.1c-4.4-3.2-9.2-6.1-14.7-8.6
			c0.2-2.4,1.1-6.8,3.9-13.9c4.8-12.3,11.7-4.2,13.9,3.2c2.2-6.6-2.7-14.2-10.6-13.2c-8,1-13,21.4-13,21.4l-1.7-0.7l-4.4-1.6
			c0,0-4.1-13.2-16.7-20.5c-10.1-5.8-26.5-7.6-43.6,1.1c0,0,40.8-10.8,53.2,17.4c-16.8-4.4-37.1-5.6-51.7,1.2
			c-20,9.5-28.9,33.1-20,53.4c13.5,32,56,56.4,90.2,55.8c37.6-0.8,55.9-33.9,39.3-67.1C416,85.7,412.6,92.7,407.9,93.2L407.9,93.2z
			 M335.2,41.4c6.9-7,24.6-0.8,39.5,13.9c14.9,14.6,21.4,32.3,14.5,39.2c-6.9,7-24.6,0.8-39.5-13.9C334.7,66,328.2,48.4,335.2,41.4z
			"/>
		
			<radialGradient id="SVGID_3_" cx="316.6941" cy="615.5411" r="55.2113" gradientTransform="matrix(1 0 0 1 0 -550.7)" gradientUnits="userSpaceOnUse">
			<stop  offset="0.2" style="stop-color:#4F4F4F"/>
			<stop  offset="1" style="stop-color:#1E1E1E"/>
		</radialGradient>
		<path fill="url(#SVGID_3_)" d="M308.7,115.1c15.8,13.6,34.8,22.8,55.3,26.6c6.8,1.1,13.8,1.2,20.7,0.5c9.8-1.1,19-5.4,26.3-12.1
			c6.6-6.4,10.8-15,11.9-24.2c1.1-10.5-0.9-21-5.8-30.3c-4.2-7.3-7.3-12-10.4-15.7c-4-4.7-7.9-7.6-13.7-12.1
			c-6.3-4.6-13.2-8.3-20.5-11.2l-1.7-0.7l-4.4-1.6c0,0-4.5-1.5-7.1-2.1c-3-0.8-6-1.4-9.1-2l-5.5-0.8c-10-1.5-20.2-1-30.1,1.4
			l-1.2,0.4c-12.1,3.5-21.9,12.5-26.4,24.3c-3.8,9.8-3.8,21.1,0.6,31.4c1,2.4,2.2,4.8,3.5,7C295.7,101.9,301.7,109,308.7,115.1z"/>
		
			<ellipse transform="matrix(0.7169 -0.6972 0.6972 0.7169 53.7854 280.6649)" fill="#2D2D2D" cx="372.5" cy="74.1" rx="7.6" ry="14.5"/>
		<path opacity="0.2" enable-background="new    " d="M331.4,45.6c-6.3,7.6,1.6,24.5,17.6,37.9c16.1,13.4,34.2,18.1,40.5,10.5
			c6.3-7.6-1.6-24.5-17.6-37.9C355.8,42.8,337.7,38,331.4,45.6z"/>
		<path opacity="0.8" fill="#5D5D5D" enable-background="new    " d="M334.9,41.4c-6.9,7-0.4,24.6,14.5,39.2
			c14.9,14.7,32.6,20.8,39.5,13.9c6.9-7,0.4-24.6-14.5-39.2C359.6,40.6,341.8,34.4,334.9,41.4z"/>
		<path opacity="0.8" fill="#CCFF00" enable-background="new    " d="M334.9,41.4c-6.9,7-0.4,24.6,14.5,39.2
			c14.9,14.7,32.6,20.8,39.5,13.9c6.9-7,0.4-24.6-14.5-39.2C359.6,40.6,341.8,34.4,334.9,41.4z"/>
		<path opacity="0.7" fill="#CCFF00" enable-background="new    " d="M340.1,45.4c-6.1,6.2-0.4,21.9,12.9,34.9
			c13.3,13,29,18.6,35.1,12.3c6.1-6.2,0.4-21.9-12.9-34.9C362,44.6,346.2,39.1,340.1,45.4z"/>
		<path fill="#CCFF00" d="M351.5,54.9c-4.5,4.6-0.3,16.1,9.5,25.6s21.3,13.6,25.8,9c4.5-4.6,0.3-16.1-9.5-25.6
			C367.6,54.4,356.1,50.4,351.5,54.9z"/>
		
			<ellipse transform="matrix(0.7169 -0.6972 0.6972 0.7169 53.721 280.5065)" fill="#2D2D2D" cx="372.3" cy="74.1" rx="7.6" ry="14.5"/>
		
			<ellipse transform="matrix(0.7169 -0.6972 0.6972 0.7169 53.721 280.5065)" fill="#333333" cx="372.3" cy="74.1" rx="5.6" ry="10.6"/>
		
			<ellipse transform="matrix(0.7169 -0.6972 0.6972 0.7169 54.1822 279.4756)" fill="#424242" cx="371.2" cy="73" rx="3.4" ry="6.5"/>
		<path opacity="0.3" enable-background="new    " d="M381.4,132.2c-9.8,0.9-35.9-3.2-34-11.4c1.4-5.8,9-1.1,18.9,2.9
			c7,2.7,16.4,4.3,19.8,4.9C394.6,130.1,391.3,131.3,381.4,132.2L381.4,132.2z"/>
		<g opacity="0.3">
			<path d="M410.5,66.1c-2.7-4.2-5.9-8-9.5-11.3c-3.7-3.6-6.6-5.6-8.3-6.9c-1.9,4.7-2.6,9.7-2.1,14.8c1.7,16.6,8.5,29.5,15.1,28.9
				c4.7-0.5,8.1-7.3,9.2-17C413.7,71.6,412.2,68.8,410.5,66.1z"/>
		</g>
		
			<linearGradient id="SVGID_4_" gradientUnits="userSpaceOnUse" x1="371.0301" y1="671.9803" x2="369.894" y2="676.2972" gradientTransform="matrix(1 0 0 1 0 -550.7)">
			<stop  offset="0" style="stop-color:#FFFFFF"/>
			<stop  offset="1" style="stop-color:#D8D8D8"/>
		</linearGradient>
		<path fill="url(#SVGID_4_)" d="M382.6,130.6c-9.8,0.9-35.9-3.2-34-11.4c1.4-5.8,9-1.1,18.9,2.9c7,2.7,16.4,4.3,19.8,4.9
			C395.7,128.5,392.4,129.7,382.6,130.6L382.6,130.6z"/>
		<g>
			<path opacity="0.8" fill="#CCFF00" enable-background="new    " d="M412.7,67.4c-2.7-4.2-5.9-8-9.5-11.3c-3.7-3.6-8.4-7-10.1-8.3
				v0.1c-0.8,4.7-0.8,10.2-0.3,16.1c1.7,16.6,8.5,29.5,15.1,28.9c4.6-0.5,8-7.2,9.2-16.7l0.1-0.6C415.7,72.5,414.4,70.2,412.7,67.4z
				"/>
			<path opacity="0.7" fill="#CCFF00" enable-background="new    " d="M412.3,66.6c-1.5-2.3-2.6-3.7-4.1-5.4l-3.3-3.3
				c-2.9-2.7-9.1-8-10.5-8.9l-0.1,1.1c-0.4,4.1-0.3,8.2,0.1,12.3c1.3,12.8,6.4,27.8,14.2,27.8c3.6,0,6.4-7,7.6-16.1v-0.5
				C415.1,71.1,413.8,68.8,412.3,66.6z"/>
			<path fill="#CCFF00" d="M412,66.3c-1-1.7-2.2-3.2-3.6-4.7l-2.9-3c-2.2-2.4-7.3-6.7-8.5-7.6l-0.1,1.2c-0.3,3-0.3,6.8,0.1,10.8
				c1.1,11.2,5.2,23.8,11.8,23.2c4.2-0.4,5.3-6.1,6.3-14v-0.5C414.3,69.8,413.2,68,412,66.3L412,66.3z"/>
			<path fill="#2D2D2D" d="M409.1,83.3c2.9-0.2,4.8-5.5,4.3-11.9c-0.2-1.5-0.4-3-0.7-4.2c-1.3-2.3-3-4.5-5.4-6.9l-0.1-0.1
				c-2.9,0.2-4.8,5.5-4.3,11.9C403.4,78.5,406.2,83.5,409.1,83.3z"/>
			<path fill="#333333" d="M408.8,78.6c1.7-0.2,3-3.3,2.6-7.2c-0.2-1.6-0.5-3.5-1.1-4.9c-0.9-1.8-3.2-2.6-4.3-0.5
				c-0.9,1.8-1.2,3.8-0.9,5.8C405.4,75.7,407,78.8,408.8,78.6z"/>
			<path fill="#424242" d="M408.7,76.2c1.1-0.1,1.8-2.1,1.7-4.5c-0.1-1-0.3-2.2-0.7-3.1c-0.5-1.1-2-1.7-2.7-0.3
				c-0.6,1.1-0.7,2.5-0.6,3.7C406.6,74.3,407.7,76.3,408.7,76.2z"/>
		</g>
		
			<ellipse transform="matrix(0.7478 -0.6639 0.6639 0.7478 47.0869 257.123)" opacity="0.2" fill="#FFFFFF" enable-background="new    " cx="362" cy="66.6" rx="7.9" ry="16.4"/>
		<path opacity="0.1" fill="#FFFFFF" enable-background="new    " d="M407.3,60.3c-1.4,2.3-2,4.9-1.7,7.6c0.5,4.8,3.1,8.3,5.9,8
			c1.7-0.2,3.2-1.9,3.9-4.3C413.3,67.5,410.5,63.7,407.3,60.3L407.3,60.3z"/>
	</g>
</g>
</svg>
